<svg xmlns="http://www.w3.org/2000/svg" xmlns:xlink="http://www.w3.org/1999/xlink" width="1587" zoomAndPan="magnify" viewBox="0 0 1190.25 1683.749949" height="2245" preserveAspectRatio="xMidYMid meet" version="1.0"><defs><filter x="0%" y="0%" width="100%" height="100%" id="6255483db5"><feColorMatrix values="0 0 0 0 1 0 0 0 0 1 0 0 0 0 1 0 0 0 1 0" color-interpolation-filters="sRGB"/></filter><g/><clipPath id="a694f0f0f5"><path d="M 0 0.40625 L 1189.5 0.40625 L 1189.5 1683.09375 L 0 1683.09375 Z M 0 0.40625 " clip-rule="nonzero"/></clipPath><clipPath id="1aac89f5c2"><path d="M 0 1289 L 1189.5 1289 L 1189.5 1683.09375 L 0 1683.09375 Z M 0 1289 " clip-rule="nonzero"/></clipPath><mask id="93e313806b"><g filter="url(#6255483db5)"><rect x="-261.855" width="1713.96" fill="#000000" y="-370.424989" height="2424.599927" fill-opacity="0.18"/></g></mask><clipPath id="143d523069"><path d="M 0 16.070312 L 1189.5 16.070312 L 1189.5 394.09375 L 0 394.09375 Z M 0 16.070312 " clip-rule="nonzero"/></clipPath><clipPath id="d5a09266f8"><rect x="0" width="1190" y="0" height="395"/></clipPath><clipPath id="e6d1baa53b"><path d="M 0 1473 L 1189.5 1473 L 1189.5 1683.09375 L 0 1683.09375 Z M 0 1473 " clip-rule="nonzero"/></clipPath><mask id="13e5a0995c"><g filter="url(#6255483db5)"><rect x="-261.855" width="1713.96" fill="#000000" y="-370.424989" height="2424.599927" fill-opacity="0.18"/></g></mask><clipPath id="7a1cea58ad"><path d="M 0 15.972656 L 1189.5 15.972656 L 1189.5 210.09375 L 0 210.09375 Z M 0 15.972656 " clip-rule="nonzero"/></clipPath><clipPath id="b327705bf7"><rect x="0" width="1190" y="0" height="211"/></clipPath><mask id="1cbf56889c"><g filter="url(#6255483db5)"><rect x="-261.855" width="1713.96" fill="#000000" y="-370.424989" height="2424.599927" fill-opacity="0.11"/></g></mask><clipPath id="2f9112b544"><path d="M 0.714844 0.265625 L 1062 0.265625 L 1062 246.347656 L 0.714844 246.347656 Z M 0.714844 0.265625 " clip-rule="nonzero"/></clipPath><clipPath id="193ff8e3f7"><rect x="0" width="1064" y="0" height="247"/></clipPath><clipPath id="6ad69f5516"><path d="M 396 787.535156 L 531 787.535156 L 531 1047 L 396 1047 Z M 396 787.535156 " clip-rule="nonzero"/></clipPath><clipPath id="849c0de979"><path d="M 125 1141 L 1088 1141 L 1088 1683.09375 L 125 1683.09375 Z M 125 1141 " clip-rule="nonzero"/></clipPath><clipPath id="d28ef46fc1"><path d="M 581 1551 L 631 1551 L 631 1683.09375 L 581 1683.09375 Z M 581 1551 " clip-rule="nonzero"/></clipPath><mask id="33b1c2f5c5"><g filter="url(#6255483db5)"><rect x="-261.855" width="1713.96" fill="#000000" y="-370.424989" height="2424.599927" fill-opacity="0.11"/></g></mask><clipPath id="c9de327630"><path d="M 0 0.539062 L 470.769531 0.539062 L 470.769531 294 L 0 294 Z M 0 0.539062 " clip-rule="nonzero"/></clipPath><clipPath id="c5ec0cbb35"><rect x="0" width="473" y="0" height="295"/></clipPath><clipPath id="a3fd933de6"><path d="M 621 333 L 1189.5 333 L 1189.5 580 L 621 580 Z M 621 333 " clip-rule="nonzero"/></clipPath><mask id="221c7c3d91"><g filter="url(#6255483db5)"><rect x="-261.855" width="1713.96" fill="#000000" y="-370.424989" height="2424.599927" fill-opacity="0.11"/></g></mask><clipPath id="357fb7025d"><path d="M 0.449219 0.554688 L 568.5 0.554688 L 568.5 246.640625 L 0.449219 246.640625 Z M 0.449219 0.554688 " clip-rule="nonzero"/></clipPath><clipPath id="5dc910abae"><rect x="0" width="569" y="0" height="247"/></clipPath><clipPath id="dfebd2b379"><path d="M 474 0.40625 L 1189.5 0.40625 L 1189.5 223 L 474 223 Z M 474 0.40625 " clip-rule="nonzero"/></clipPath><mask id="e4d14bb573"><g filter="url(#6255483db5)"><rect x="-261.855" width="1713.96" fill="#000000" y="-370.424989" height="2424.599927" fill-opacity="0.11"/></g></mask><clipPath id="06596674de"><path d="M 1 0.40625 L 715.5 0.40625 L 715.5 222.746094 L 1 222.746094 Z M 1 0.40625 " clip-rule="nonzero"/></clipPath><clipPath id="f43af94e18"><rect x="0" width="716" y="0" height="223"/></clipPath><clipPath id="3723dc582d"><path d="M 0 582 L 270.730469 582 L 270.730469 732.554688 L 0 732.554688 Z M 0 582 " clip-rule="nonzero"/></clipPath><clipPath id="03a8ef11cf"><path d="M 895 141.460938 L 1189.5 141.460938 L 1189.5 273.34375 L 895 273.34375 Z M 895 141.460938 " clip-rule="nonzero"/></clipPath><clipPath id="42439aa952"><path d="M 169.808594 46.554688 L 521.996094 46.554688 L 521.996094 137.222656 L 169.808594 137.222656 Z M 169.808594 46.554688 " clip-rule="nonzero"/></clipPath><clipPath id="9b3404e9e4"><path d="M 929.542969 691.8125 L 1189.5 691.8125 L 1189.5 782.480469 L 929.542969 782.480469 Z M 929.542969 691.8125 " clip-rule="nonzero"/></clipPath><clipPath id="47e11d1179"><path d="M 684.292969 754.710938 L 783.953125 754.710938 L 783.953125 930.058594 L 684.292969 930.058594 Z M 684.292969 754.710938 " clip-rule="nonzero"/></clipPath><clipPath id="7ecbe83633"><path d="M 5 1.046875 L 95 1.046875 L 95 172 L 5 172 Z M 5 1.046875 " clip-rule="nonzero"/></clipPath><clipPath id="8bfadbc096"><rect x="0" width="100" y="0" height="177"/></clipPath><clipPath id="84f7218fce"><path d="M 77.210938 388.867188 L 136.410156 388.867188 L 136.410156 493.027344 L 77.210938 493.027344 Z M 77.210938 388.867188 " clip-rule="nonzero"/></clipPath><clipPath id="17815a2787"><path d="M 3 1.074219 L 57 1.074219 L 57 103 L 3 103 Z M 3 1.074219 " clip-rule="nonzero"/></clipPath><clipPath id="d4873438b3"><rect x="0" width="60" y="0" height="106"/></clipPath><clipPath id="d5c57d0f68"><path d="M 906.4375 878.140625 L 965.636719 878.140625 L 965.636719 982.296875 L 906.4375 982.296875 Z M 906.4375 878.140625 " clip-rule="nonzero"/></clipPath><clipPath id="9a6ce0185a"><path d="M 3 0.34375 L 57 0.34375 L 57 102 L 3 102 Z M 3 0.34375 " clip-rule="nonzero"/></clipPath><clipPath id="e5b5befa7a"><rect x="0" width="60" y="0" height="105"/></clipPath><clipPath id="3ed79c6a62"><path d="M 210.242188 790.296875 L 237.214844 790.296875 L 237.214844 837.503906 L 210.242188 837.503906 Z M 210.242188 790.296875 " clip-rule="nonzero"/></clipPath><clipPath id="2efc54eef0"><path d="M 1 0.390625 L 26 0.390625 L 26 47 L 1 47 Z M 1 0.390625 " clip-rule="nonzero"/></clipPath><clipPath id="dfb49432d0"><rect x="0" width="28" y="0" height="48"/></clipPath><clipPath id="9262280031"><path d="M 1105.695312 521.410156 L 1132.671875 521.410156 L 1132.671875 568.617188 L 1105.695312 568.617188 Z M 1105.695312 521.410156 " clip-rule="nonzero"/></clipPath><clipPath id="14c5329a51"><path d="M 2 0.507812 L 27 0.507812 L 27 47 L 2 47 Z M 2 0.507812 " clip-rule="nonzero"/></clipPath><clipPath id="bf9e812792"><rect x="0" width="28" y="0" height="48"/></clipPath><clipPath id="91716b8e6e"><path d="M 1088.601562 1509.839844 L 1132.8125 1509.839844 L 1132.8125 1587.773438 L 1088.601562 1587.773438 Z M 1088.601562 1509.839844 " clip-rule="nonzero"/></clipPath><clipPath id="24127f6987"><path d="M 3 0.984375 L 43 0.984375 L 43 77 L 3 77 Z M 3 0.984375 " clip-rule="nonzero"/></clipPath><clipPath id="118fab728d"><rect x="0" width="45" y="0" height="79"/></clipPath><clipPath id="e06de3a8cc"><path d="M 77.210938 1488.972656 L 107.933594 1488.972656 L 107.933594 1543.675781 L 77.210938 1543.675781 Z M 77.210938 1488.972656 " clip-rule="nonzero"/></clipPath><clipPath id="b914b205f3"><path d="M 2 1.078125 L 30 1.078125 L 30 55 L 2 55 Z M 2 1.078125 " clip-rule="nonzero"/></clipPath><clipPath id="be1e1718bb"><rect x="0" width="31" y="0" height="56"/></clipPath><clipPath id="bdea7475a2"><path d="M 223.738281 52 L 250.714844 52 L 250.714844 99.207031 L 223.738281 99.207031 Z M 223.738281 52 " clip-rule="nonzero"/></clipPath><clipPath id="e2389daf06"><path d="M 2 0.0976562 L 27 0.0976562 L 27 47 L 2 47 Z M 2 0.0976562 " clip-rule="nonzero"/></clipPath><clipPath id="30b374b283"><rect x="0" width="28" y="0" height="48"/></clipPath><clipPath id="cb34b1f86e"><path d="M 974.125 65.152344 L 1031.078125 65.152344 L 1031.078125 164.816406 L 974.125 164.816406 Z M 974.125 65.152344 " clip-rule="nonzero"/></clipPath><clipPath id="047a751d1f"><path d="M 3 0.34375 L 54 0.34375 L 54 98 L 3 98 Z M 3 0.34375 " clip-rule="nonzero"/></clipPath><clipPath id="2816b50e51"><rect x="0" width="58" y="0" height="100"/></clipPath><clipPath id="da501aefe8"><path d="M 540.425781 638.886719 L 618.355469 638.886719 L 618.355469 716.816406 L 540.425781 716.816406 Z M 540.425781 638.886719 " clip-rule="nonzero"/></clipPath><clipPath id="5b5db9044e"><path d="M 944.464844 285.773438 L 1022.398438 285.773438 L 1022.398438 363.703125 L 944.464844 363.703125 Z M 944.464844 285.773438 " clip-rule="nonzero"/></clipPath><clipPath id="095b8a763d"><path d="M 237.238281 1516.355469 L 315 1516.355469 L 315 1594 L 237.238281 1594 Z M 237.238281 1516.355469 " clip-rule="nonzero"/></clipPath><clipPath id="14882782d2"><path d="M 18.351562 1043.753906 L 61.0625 1043.753906 L 61.0625 1086.464844 L 18.351562 1086.464844 Z M 18.351562 1043.753906 " clip-rule="nonzero"/></clipPath><clipPath id="9fa43f11a2"><path d="M 1097.8125 1235.671875 L 1140.527344 1235.671875 L 1140.527344 1278.386719 L 1097.8125 1278.386719 Z M 1097.8125 1235.671875 " clip-rule="nonzero"/></clipPath><clipPath id="6ba4696e0f"><path d="M 127.042969 155.636719 L 169.757812 155.636719 L 169.757812 198.347656 L 127.042969 198.347656 Z M 127.042969 155.636719 " clip-rule="nonzero"/></clipPath><clipPath id="66e6356a4a"><path d="M 922.996094 1462.632812 L 965.707031 1462.632812 L 965.707031 1505.34375 L 922.996094 1505.34375 Z M 922.996094 1462.632812 " clip-rule="nonzero"/></clipPath><clipPath id="3398cd9de1"><rect x="0" width="1190" y="0" height="1684"/></clipPath></defs><g clip-path="url(#a694f0f0f5)"><g transform="matrix(1, 0, 0, 1, 0, 0.000000000000081102)"><g clip-path="url(#3398cd9de1)"><g clip-path="url(#1aac89f5c2)"><g mask="url(#93e313806b)"><g transform="matrix(1, 0, 0, 1, 0, 1289)"><g clip-path="url(#d5a09266f8)"><g clip-path="url(#143d523069)"><path fill="#76caf6" d="M -86.40625 210.761719 C -83.777344 192.125 -79.980469 173.574219 -73.5625 155.878906 C -63.519531 128.210938 -46.902344 102.757812 -24.585938 83.5625 C -2.269531 64.367188 25.816406 51.628906 55.132812 48.972656 C 85.636719 46.207031 115.957031 54.152344 145.777344 61.15625 C 175.597656 68.160156 206.675781 74.296875 236.644531 67.960938 C 260.097656 63.003906 281.234375 50.738281 302.382812 39.453125 C 323.535156 28.167969 345.875 17.492188 369.8125 16.199219 C 389.191406 15.152344 408.503906 20.398438 426.136719 28.507812 C 443.773438 36.613281 459.949219 47.527344 475.992188 58.449219 C 492.035156 69.375 508.117188 80.40625 525.625 88.785156 C 543.128906 97.167969 562.277344 102.855469 581.683594 102.410156 C 609.777344 101.765625 635.929688 88.507812 660.140625 74.242188 C 684.351562 59.972656 708.324219 44.144531 735.609375 37.414062 C 773.058594 28.179688 812.519531 37.113281 849.164062 49.136719 C 885.8125 61.160156 921.960938 76.40625 960.347656 80.136719 C 1000.902344 84.078125 1041.429688 74.925781 1081.390625 66.988281 C 1121.355469 59.050781 1162.757812 52.289062 1202.582031 60.910156 C 1233.535156 67.613281 1262.375 83.6875 1284.46875 106.382812 C 1306.558594 129.078125 1321.84375 158.289062 1328.046875 189.347656 C 1338.300781 240.679688 1323.757812 294.328125 1299.351562 340.640625 C 1274.945312 386.953125 1241.113281 427.46875 1209.464844 469.167969 C 1184.183594 502.484375 1159.953125 536.988281 1129.386719 565.535156 C 1098.824219 594.082031 1060.757812 616.65625 1019.101562 620.367188 C 980.386719 623.816406 942.25 610.90625 905.8125 597.375 C 869.375 583.847656 832.195312 569.300781 793.324219 569.289062 C 745.207031 569.277344 700.292969 591.425781 656.40625 611.160156 C 634.460938 621.027344 612.191406 630.441406 588.878906 636.394531 C 565.570312 642.347656 541.050781 644.753906 517.375 640.480469 C 494.496094 636.347656 473.222656 626.183594 452.1875 616.289062 C 431.152344 606.390625 409.671875 596.550781 386.675781 593.144531 C 363.828125 589.757812 340.386719 592.914062 318.175781 599.261719 C 295.964844 605.605469 274.792969 615.074219 253.726562 624.550781 C 232.664062 634.027344 211.535156 643.578125 189.375 650.105469 C 167.21875 656.628906 143.839844 660.070312 120.9375 657.054688 C 89.074219 652.863281 59.71875 636.265625 36.253906 614.308594 C 12.789062 592.347656 -5.238281 565.203125 -20.816406 537.09375 C -75.550781 438.339844 -102.164062 322.566406 -86.40625 210.761719 Z M -86.40625 210.761719 " fill-opacity="1" fill-rule="nonzero"/></g></g></g></g></g><g clip-path="url(#e6d1baa53b)"><g mask="url(#13e5a0995c)"><g transform="matrix(1, 0, 0, 1, 0, 1473)"><g clip-path="url(#b327705bf7)"><g clip-path="url(#7a1cea58ad)"><path fill="#76caf6" d="M -109.671875 210.667969 C -107.042969 192.027344 -103.25 173.476562 -96.828125 155.785156 C -86.789062 128.113281 -70.167969 102.660156 -47.851562 83.464844 C -25.535156 64.269531 2.546875 51.53125 31.863281 48.875 C 62.371094 46.109375 92.691406 54.054688 122.511719 61.058594 C 152.328125 68.0625 183.40625 74.199219 213.375 67.867188 C 236.832031 62.910156 257.964844 50.644531 279.117188 39.359375 C 300.265625 28.070312 322.605469 17.394531 346.546875 16.101562 C 365.925781 15.058594 385.238281 20.304688 402.871094 28.410156 C 420.503906 36.519531 436.683594 47.429688 452.726562 58.355469 C 468.769531 69.277344 484.851562 80.308594 502.355469 88.691406 C 519.863281 97.070312 539.011719 102.757812 558.414062 102.3125 C 586.511719 101.671875 612.664062 88.414062 636.875 74.144531 C 661.085938 59.875 685.058594 44.046875 712.34375 37.320312 C 749.789062 28.085938 789.25 37.019531 825.898438 49.042969 C 862.542969 61.0625 898.691406 76.308594 937.082031 80.039062 C 977.632812 83.980469 1018.160156 74.832031 1058.125 66.894531 C 1098.089844 58.957031 1139.492188 52.195312 1179.3125 60.816406 C 1210.269531 67.515625 1239.105469 83.59375 1261.199219 106.285156 C 1283.292969 128.980469 1298.574219 158.191406 1304.777344 189.25 C 1315.035156 240.585938 1300.492188 294.234375 1276.085938 340.542969 C 1251.679688 386.855469 1217.847656 427.375 1186.199219 469.074219 C 1160.914062 502.386719 1136.6875 536.890625 1106.121094 565.4375 C 1075.554688 593.984375 1037.492188 616.558594 995.832031 620.269531 C 957.117188 623.71875 918.984375 610.8125 882.546875 597.28125 C 846.109375 583.75 808.925781 569.203125 770.058594 569.195312 C 721.941406 569.183594 677.023438 591.332031 633.136719 611.066406 C 611.195312 620.933594 588.925781 630.347656 565.613281 636.300781 C 542.300781 642.25 517.78125 644.660156 494.105469 640.382812 C 471.230469 636.253906 449.957031 626.085938 428.921875 616.191406 C 407.882812 606.296875 386.40625 596.453125 363.410156 593.046875 C 340.558594 589.660156 317.121094 592.820312 294.910156 599.164062 C 272.699219 605.511719 251.527344 614.976562 230.460938 624.457031 C 209.394531 633.933594 188.265625 643.484375 166.109375 650.007812 C 143.949219 656.535156 120.570312 659.976562 97.667969 656.960938 C 65.808594 652.765625 36.449219 636.171875 12.988281 614.210938 C -10.476562 592.25 -28.503906 565.109375 -44.082031 537 C -98.816406 438.242188 -125.433594 322.472656 -109.671875 210.667969 Z M -109.671875 210.667969 " fill-opacity="1" fill-rule="nonzero"/></g></g></g></g></g><g mask="url(#1cbf56889c)"><g transform="matrix(1, 0, 0, 1, 71, 795)"><g clip-path="url(#193ff8e3f7)"><g clip-path="url(#2f9112b544)"><path fill="#77cbf8" d="M 262.15625 142.269531 C 256.558594 138.34375 249.371094 135.644531 240.589844 134.167969 L 194.066406 134.300781 C 174.894531 144.949219 161.3125 150.425781 153.324219 150.726562 L 94.328125 157.070312 C 51.078125 156.183594 26.996094 156.691406 22.082031 158.59375 C 11.554688 161.738281 4.660156 167.980469 1.402344 177.316406 C -1.34375 185.125 6.445312 190.335938 24.765625 192.949219 C 26.507812 194.828125 53.398438 194.285156 105.4375 191.324219 C 123.035156 192.136719 136.953125 193.78125 147.195312 196.265625 C 159.707031 199.675781 165.589844 202.171875 164.839844 203.753906 C 164.808594 205.226562 154.960938 205.308594 135.292969 203.992188 C 130.902344 204.410156 125.632812 205.917969 119.488281 208.519531 C 111.453125 212.683594 112.375 217.917969 122.25 224.21875 C 124.378906 225.265625 127.089844 225.929688 130.378906 226.214844 C 150.0625 225.628906 162.691406 225.878906 168.269531 226.957031 C 187.839844 229.566406 212.699219 233.839844 242.851562 239.78125 C 258.523438 240.984375 278.320312 234.53125 302.230469 220.429688 C 322.894531 220.191406 334.554688 219.511719 337.207031 218.382812 C 350.457031 209.09375 358.523438 205.078125 361.402344 206.328125 C 372.972656 210.066406 380.613281 211.652344 384.316406 211.085938 C 368.851562 230.242188 372.25 241.433594 394.515625 244.660156 C 402.3125 247.214844 445.207031 246.308594 523.191406 241.941406 L 626.316406 246.019531 C 647.292969 242.902344 654.570312 237.339844 648.140625 229.335938 C 640.613281 224.191406 618.761719 220.027344 582.578125 216.839844 C 579.597656 216.335938 578.679688 215.199219 579.824219 213.433594 C 582.566406 211.792969 588.65625 210.726562 598.101562 210.226562 C 630.601562 213.253906 647.035156 214.203125 647.390625 213.078125 C 656.324219 212.292969 666.59375 209.441406 678.199219 204.519531 C 672.671875 221.671875 675.578125 232.144531 686.921875 235.9375 C 705.179688 240.828125 732.484375 242.410156 768.839844 240.691406 C 774.488281 240.820312 802.566406 237.21875 853.066406 229.886719 C 900.707031 230.570312 936.496094 228.378906 960.441406 223.304688 C 977.199219 219.550781 989.011719 213.597656 995.878906 205.445312 C 966.425781 202.53125 947.535156 201.480469 939.207031 202.285156 C 916.394531 195.792969 901.613281 192.9375 894.863281 193.722656 C 906.632812 189.625 922.523438 187.1875 942.53125 186.417969 L 996.035156 190.050781 C 1000.988281 190.292969 1005.484375 190.152344 1009.527344 189.625 L 1057.589844 177.488281 C 1060.414062 176.601562 1061.824219 175.484375 1061.816406 174.140625 C 1053.828125 168.0625 1004.042969 164.691406 912.460938 164.023438 C 891.847656 142.058594 869.160156 133.460938 844.394531 138.230469 C 839.472656 117.800781 830.539062 106.277344 817.59375 103.65625 C 810.691406 102.261719 802.453125 102.765625 792.882812 105.164062 C 783.433594 106.710938 772.921875 111.5625 761.339844 119.722656 C 759.535156 120.5 756.425781 120.285156 752.011719 119.074219 C 732.332031 96.449219 712.878906 85.726562 693.648438 86.910156 C 681.660156 63.023438 670.238281 49.613281 659.382812 46.671875 C 647.992188 41.703125 636.3125 40.367188 624.351562 42.664062 C 618.542969 43.601562 613.070312 45.09375 607.941406 47.136719 C 603.523438 48.683594 597.191406 52.546875 588.945312 58.726562 C 587.105469 59.707031 585.164062 59.925781 583.128906 59.382812 C 527.910156 19.277344 490.371094 -0.214844 470.511719 0.90625 C 443.109375 -1.421875 412.191406 10.25 377.757812 35.921875 C 348.46875 58.617188 335.394531 83.722656 338.527344 111.238281 C 309.855469 92.570312 283.011719 93.953125 258 115.382812 Z M 262.15625 142.269531 " fill-opacity="1" fill-rule="nonzero"/></g><path fill="#77cbf8" d="M 330.683594 118.828125 C 313.945312 101.648438 292.707031 98.042969 266.960938 108.011719 C 245.878906 117.578125 236.648438 134.742188 239.265625 159.503906 Z M 330.683594 118.828125 " fill-opacity="1" fill-rule="nonzero"/></g></g></g><path fill="#76caf6" d="M 282.203125 1211.34375 C 284.371094 1221.878906 148.496094 1242.828125 153.085938 1254.207031 C 158.773438 1268.328125 218.585938 1344.714844 224.414062 1358.246094 C 231.859375 1375.523438 243.800781 1401.730469 259.328125 1411.609375 C 266.402344 1416.109375 273.316406 1415.800781 281.234375 1418.703125 C 339.679688 1440.746094 380.753906 1470.007812 419.65625 1502.738281 C 440.40625 1520.195312 461.734375 1536.730469 483.4375 1554.15625 C 494.832031 1563.308594 540.382812 1597.703125 545.777344 1606.898438 C 550.890625 1609.964844 651.375 1567.09375 654.75 1574.332031 C 660.222656 1586.074219 659.4375 1594.304688 662.324219 1606.160156 C 664.042969 1584.929688 779.027344 1634.683594 795.523438 1621.648438 C 799.222656 1614.285156 846.921875 1577.34375 857.6875 1568.996094 C 879.402344 1552.164062 900.472656 1535.441406 921.492188 1517.601562 C 957.792969 1486.796875 977.320312 1433.058594 1022.457031 1419.902344 C 1036.082031 1413.367188 970.390625 1356.917969 986.90625 1335.800781 C 998.609375 1320.832031 1036.621094 1235.644531 1037.960938 1221.570312 C 1025.636719 1220.496094 1028.597656 1218.125 1010.238281 1220.6875 C 948.785156 1229.261719 913.503906 1263.050781 840.863281 1208.828125 C 828.398438 1199.523438 818.664062 1190.066406 807.300781 1181.078125 C 762.679688 1145.792969 729.953125 1129.242188 673.917969 1158.371094 C 633.605469 1179.332031 608.589844 1220.125 545.789062 1215.015625 C 486.207031 1210.171875 452.945312 1171.328125 365.179688 1200.777344 C 326.273438 1213.828125 330.871094 1211.34375 282.203125 1211.34375 Z M 282.203125 1211.34375 " fill-opacity="1" fill-rule="evenodd"/><g clip-path="url(#6ad69f5516)"><path fill="#76caf6" d="M 514.242188 884.273438 C 516.832031 875.625 484.117188 824.105469 473.074219 812.9375 C 466.382812 806.179688 450.71875 790.382812 441.207031 787.917969 C 435.492188 786.4375 436.132812 789.433594 436.132812 794.140625 L 441.683594 796.964844 C 441.703125 811.191406 438.300781 821.527344 434.628906 832.59375 C 418.941406 879.832031 380.347656 953.113281 402.992188 1003.839844 C 409.386719 1018.167969 418.730469 1030.753906 432.714844 1038.222656 C 436.75 1040.378906 443.726562 1044.117188 449.132812 1043.992188 L 455.046875 1045.625 C 488.824219 1050.59375 517.339844 1025.585938 526.050781 994.667969 C 531.707031 974.5625 531.652344 958.804688 529.097656 936.234375 C 527.378906 922.570312 524.359375 909.101562 520.074219 896.011719 C 518.894531 892.191406 517.390625 886.332031 514.242188 884.273438 Z M 514.242188 884.273438 " fill-opacity="1" fill-rule="evenodd"/></g><path fill="#76caf6" d="M 647.921875 1039.445312 C 649.453125 1034.871094 637.886719 1007.992188 636.191406 1002.859375 C 628.386719 979.242188 618.960938 945.597656 619.109375 919.59375 C 619.152344 912.195312 618.480469 901.613281 619.253906 894.628906 C 620.003906 887.863281 623.425781 877.804688 616.34375 875.910156 C 609.339844 875.910156 596.898438 916.535156 594.957031 924.207031 C 590.207031 942.960938 583.101562 961.5 578.8125 978.675781 C 571.984375 1005.976562 568.605469 1013.371094 564.570312 1044.347656 C 562.554688 1059.878906 564.660156 1083.800781 571.117188 1097.695312 C 574.511719 1105.003906 583.640625 1116.707031 591.746094 1118.429688 C 593.386719 1120.730469 595.734375 1120.929688 598.246094 1121.648438 C 630.234375 1130.730469 660.035156 1109.140625 657.15625 1072.949219 C 656.570312 1067.09375 655.535156 1061.296875 654.054688 1055.605469 L 650.691406 1043.246094 C 648.605469 1037.96875 650.527344 1041.371094 647.921875 1039.445312 Z M 647.921875 1039.445312 " fill-opacity="1" fill-rule="evenodd"/><path fill="#49a5f2" d="M 595.464844 1294.558594 C 602.503906 1299.21875 611.429688 1297.246094 623.976562 1296.128906 C 650.679688 1293.84375 677.019531 1288.402344 702.441406 1279.914062 C 736.78125 1268.519531 762.941406 1251.015625 803.226562 1265.117188 C 855.285156 1283.347656 891.574219 1309.632812 953.957031 1289.8125 C 961.128906 1287.539062 995.59375 1275.121094 990.632812 1265.285156 C 987.191406 1258.460938 977.589844 1266.324219 969.777344 1270.351562 C 945.664062 1283.140625 918.019531 1287.65625 891.089844 1283.199219 C 855.738281 1277.53125 829.96875 1259.40625 797.015625 1250.785156 C 759.34375 1240.925781 727.144531 1259.226562 695.90625 1269.488281 C 670.136719 1277.914062 643.414062 1283.078125 616.359375 1284.859375 C 606.140625 1285.59375 593.003906 1282.644531 595.464844 1294.558594 Z M 595.464844 1294.558594 " fill-opacity="1" fill-rule="evenodd"/><path fill="#49a5f2" d="M 654.835938 1374.710938 C 624.839844 1378.691406 598.894531 1390.773438 567.046875 1394.390625 C 538.117188 1397.675781 496.808594 1394.476562 477.457031 1379.0625 C 475.332031 1377.371094 473.578125 1374.085938 469.246094 1375.539062 C 468.5 1375.792969 467.8125 1376.199219 467.234375 1376.734375 C 466.652344 1377.265625 466.1875 1377.914062 465.875 1378.636719 C 465.554688 1379.359375 465.394531 1380.140625 465.394531 1380.929688 C 465.398438 1381.71875 465.566406 1382.5 465.886719 1383.21875 C 467.523438 1387.597656 476.285156 1392.429688 481.136719 1394.875 C 521.792969 1415.4375 577.566406 1407.148438 618.328125 1395.453125 C 656.867188 1384.394531 668.460938 1380.734375 706.359375 1395.382812 C 736.550781 1407.054688 757.742188 1413.777344 794.6875 1413.882812 C 797.71875 1413.882812 814.988281 1415.390625 810.515625 1405.417969 C 807.980469 1399.773438 794.328125 1402.195312 787.253906 1401.929688 C 771.367188 1401.503906 755.589844 1399.1875 740.253906 1395.015625 C 711.761719 1387.003906 688.253906 1370.273438 654.835938 1374.710938 Z M 654.835938 1374.710938 " fill-opacity="1" fill-rule="evenodd"/><path fill="#49a5f2" d="M 371.105469 1270.285156 C 393.738281 1270.285156 407.351562 1264.027344 428.589844 1274.640625 C 433.746094 1277.214844 437.992188 1280.863281 441.882812 1282.738281 C 448.464844 1285.914062 453.238281 1279.375 449.429688 1274.28125 C 443.378906 1266.210938 419.472656 1256.570312 402.691406 1256.601562 C 373.929688 1256.667969 354.152344 1263.03125 328.613281 1249.1875 C 320.148438 1244.59375 309.441406 1255.988281 333.875 1264.453125 C 345.875 1268.460938 358.457031 1270.429688 371.105469 1270.285156 Z M 371.105469 1270.285156 " fill-opacity="1" fill-rule="evenodd"/><path fill="#49a5f2" d="M 653.445312 1459.917969 C 645.714844 1460.523438 638.261719 1461.535156 630.832031 1462.789062 C 614.824219 1465.476562 621.566406 1473.457031 622.816406 1474.273438 C 626.515625 1476.675781 639.59375 1473.285156 644.515625 1472.683594 C 660.308594 1470.746094 676.90625 1469.511719 692.035156 1473.9375 C 704.695312 1477.644531 715.730469 1455.011719 653.445312 1459.917969 Z M 653.445312 1459.917969 " fill-opacity="1" fill-rule="evenodd"/><path fill="#49a5f2" d="M 449.132812 1043.984375 L 455.046875 1045.617188 C 488.824219 1050.585938 517.339844 1025.582031 526.050781 994.664062 C 531.707031 974.554688 531.652344 958.796875 529.097656 936.226562 C 527.382812 922.5625 524.363281 909.09375 520.074219 896.007812 C 518.894531 892.195312 517.386719 886.332031 514.25 884.273438 C 519.871094 907.082031 506.101562 960.890625 498.996094 980.546875 C 494.269531 993.8125 487.722656 1006.355469 479.546875 1017.820312 C 474.425781 1024.792969 458.96875 1041.929688 449.132812 1043.984375 Z M 449.132812 1043.984375 " fill-opacity="1" fill-rule="evenodd"/><path fill="#49a5f2" d="M 591.742188 1118.425781 C 593.382812 1120.726562 595.730469 1120.925781 598.242188 1121.644531 C 630.226562 1130.722656 660.03125 1109.136719 657.152344 1072.945312 C 656.570312 1067.089844 655.53125 1061.292969 654.050781 1055.601562 L 650.6875 1043.242188 C 648.597656 1037.96875 650.519531 1041.371094 647.917969 1039.445312 C 651.3125 1055.652344 637.59375 1095.929688 616.109375 1109.84375 C 603.03125 1118.328125 599.414062 1115.800781 591.742188 1118.425781 Z M 591.742188 1118.425781 " fill-opacity="1" fill-rule="evenodd"/><g clip-path="url(#849c0de979)"><path fill="#ffdbc5" d="M 154.800781 1392.535156 C 153.726562 1395.742188 154.828125 1397.492188 155.726562 1400.902344 C 160.878906 1420.445312 175.175781 1477.597656 180.535156 1491.308594 C 187.074219 1508.035156 197.328125 1526.328125 209.703125 1539.253906 L 258.148438 1582.78125 C 265.523438 1590.246094 272.558594 1596.195312 279.972656 1603.699219 C 283.703125 1607.472656 286.835938 1609.605469 290.660156 1613.449219 L 311.566406 1635.277344 C 317.921875 1641.554688 334.84375 1662.699219 340.1875 1669.832031 C 346.523438 1678.28125 351.960938 1686.039062 357.863281 1694.890625 L 373.722656 1720.84375 C 386.171875 1746.015625 401.539062 1748.34375 413.691406 1778.839844 L 412.109375 1809.742188 L 592.125 1809.78125 L 596.648438 1809.832031 L 616.75 1809.832031 L 620.511719 1809.761719 L 800.390625 1809.761719 C 805.839844 1798.320312 812.972656 1772.816406 824.554688 1749.367188 C 841.066406 1715.941406 849.046875 1701.203125 872.449219 1669.972656 C 877.707031 1662.957031 895.226562 1640.957031 901.398438 1634.820312 L 922.621094 1613.300781 C 922.753906 1613.164062 922.945312 1612.960938 923.070312 1612.828125 C 923.195312 1612.691406 923.394531 1612.496094 923.53125 1612.363281 L 933.445312 1602.769531 C 935.359375 1600.855469 936.582031 1599.511719 938.539062 1597.636719 C 940.828125 1595.429688 941.898438 1595.109375 944.140625 1593.023438 C 947.910156 1589.535156 950.957031 1585.625 954.851562 1582.367188 L 971.546875 1567.476562 C 973.359375 1565.5625 975.320312 1563.796875 977.410156 1562.1875 L 997.097656 1544.703125 C 997.902344 1543.960938 997.742188 1544.152344 998.574219 1543.394531 C 1010.117188 1532.460938 1019.464844 1519.421875 1026.125 1504.980469 L 1046.621094 1439.996094 C 1047.867188 1434.484375 1049.851562 1428.625 1051.101562 1423.109375 C 1052.917969 1415.089844 1060.191406 1393.03125 1058.617188 1388.816406 C 1062.082031 1386.078125 1066.398438 1364.773438 1067.515625 1359.625 C 1078.628906 1308.332031 1099.675781 1210.902344 1078.394531 1161.824219 C 1075.402344 1154.917969 1072.386719 1150.054688 1066.457031 1145.882812 C 1060.996094 1142.039062 1061.5 1143.03125 1059.542969 1143.460938 C 1058.996094 1142.191406 1060.980469 1141.730469 1054.035156 1141.515625 C 1037.71875 1141.019531 1032.441406 1143.445312 1019.992188 1153.195312 C 1008.699219 1162.035156 1005.285156 1165.714844 999.027344 1177.769531 C 998.339844 1179.414062 997.535156 1181.007812 996.625 1182.539062 C 992.707031 1197.804688 964.375 1270.953125 958.785156 1282.453125 C 951.289062 1297.859375 945.039062 1314.203125 936.113281 1328.535156 C 931.140625 1336.515625 926.738281 1342.226562 920.234375 1347.039062 C 911.988281 1353.144531 904.476562 1352.039062 895.714844 1355.84375 C 881.597656 1359.605469 837.34375 1383.125 829.515625 1390.585938 C 822.683594 1394.203125 813.003906 1401.882812 806.980469 1406.5625 C 802.742188 1409.851562 800.019531 1412.035156 796.058594 1415.15625 C 792.734375 1418.136719 789.199219 1420.871094 785.472656 1423.332031 L 732.816406 1467.113281 C 727.214844 1471.445312 720.839844 1477.777344 714.792969 1481.164062 C 705.351562 1489.875 695.222656 1497.8125 684.507812 1504.898438 C 682.472656 1507.324219 680.066406 1509.410156 677.378906 1511.082031 L 656.773438 1527.636719 C 650.570312 1532.664062 633.953125 1546.183594 630.90625 1551.757812 C 623.210938 1556.148438 611.476562 1574.320312 609.421875 1587.269531 L 603.449219 1586.519531 C 599.367188 1576.617188 593.15625 1558.175781 581.683594 1551.570312 C 578.144531 1545.277344 556.480469 1528.164062 549.132812 1522.121094 C 543.335938 1517.351562 537.871094 1513.0625 532.039062 1508.5625 C 528.210938 1505.609375 516.851562 1497.433594 514.867188 1494.773438 L 432.875 1428.425781 C 421.59375 1418.828125 399.414062 1401.375 386.714844 1392.757812 L 383.292969 1389.84375 C 378.503906 1388.015625 371.867188 1382.96875 366.957031 1380.0625 C 361.917969 1377.070312 357.132812 1374.261719 351.542969 1371.320312 C 342.285156 1366.445312 327.878906 1358.828125 316.859375 1355.921875 C 312.839844 1352.976562 301.121094 1352.855469 293.941406 1348.109375 C 277.535156 1337.273438 265.503906 1308.433594 257.386719 1289.90625 C 254.121094 1282.457031 250.363281 1276.234375 247.527344 1268.09375 C 242.109375 1252.53125 224.65625 1212.402344 222.296875 1198.695312 C 220.992188 1195.78125 219.917969 1192.765625 219.085938 1189.683594 C 218.480469 1186.679688 218.917969 1182.238281 217.949219 1180.109375 L 217.949219 1186.246094 L 215.699219 1182.035156 C 211.125 1171.300781 203.871094 1161.917969 194.636719 1154.789062 C 180.046875 1143.203125 177.085938 1141.585938 159.40625 1141.566406 C 152.742188 1141.566406 153.875 1142.117188 152.953125 1143.453125 C 145.636719 1141.941406 136.671875 1155.667969 134.089844 1161.832031 C 130.292969 1171.761719 127.886719 1182.171875 126.9375 1192.757812 C 124.007812 1219.078125 125.703125 1239.707031 127.890625 1265.210938 C 128.367188 1270.777344 129.234375 1275.910156 130.132812 1281.546875 C 131.160156 1287.984375 131.59375 1292.453125 132.75 1298.4375 C 138.777344 1329.617188 141.507812 1344.941406 149.59375 1377.296875 C 150.320312 1380.210938 150.746094 1381.765625 151.441406 1384.734375 C 151.625 1385.511719 152.039062 1387.738281 152.28125 1388.480469 C 153.777344 1393.066406 152.070312 1390.375 154.800781 1392.535156 Z M 154.800781 1392.535156 " fill-opacity="1" fill-rule="evenodd"/></g><path fill="#d7a196" d="M 269.296875 1388.816406 C 274.003906 1437.28125 321.460938 1481.703125 347.230469 1502.039062 C 356.109375 1509.046875 365.066406 1515.140625 374.261719 1522.382812 C 379.132812 1526.21875 383.332031 1529.128906 387.960938 1532.839844 C 408.167969 1549.042969 407.976562 1550.167969 425.566406 1567.707031 C 430.488281 1572.609375 432.289062 1575.328125 437.21875 1580.199219 C 440.101562 1583.046875 444.71875 1593.132812 451.175781 1588.648438 C 456.738281 1583.34375 448.09375 1578.160156 445.082031 1575.121094 L 422.699219 1551.066406 C 419.769531 1548.152344 412.148438 1542.433594 410.890625 1539.019531 C 407.140625 1537.335938 401.675781 1532.175781 398.105469 1529.214844 C 394.117188 1525.90625 390.09375 1522.765625 385.636719 1519.386719 C 377.3125 1513.078125 368.410156 1506.867188 360.050781 1500.382812 C 340.832031 1485.472656 339.847656 1483.953125 324.382812 1469.148438 C 308.746094 1454.175781 287.660156 1425.628906 281.214844 1402.699219 C 277.894531 1390.871094 275.902344 1374.03125 284.871094 1367.457031 C 301.03125 1355.613281 317.414062 1366.855469 316.882812 1355.933594 C 312.863281 1352.988281 301.144531 1352.867188 293.964844 1348.121094 C 277.558594 1337.285156 265.527344 1308.445312 257.410156 1289.917969 C 254.144531 1282.46875 250.386719 1276.246094 247.550781 1268.105469 C 242.132812 1252.542969 224.679688 1212.414062 222.320312 1198.707031 C 221.015625 1195.792969 219.941406 1192.777344 219.109375 1189.691406 C 218.503906 1186.6875 218.941406 1182.25 217.972656 1180.121094 L 217.972656 1186.257812 L 215.699219 1182.035156 C 211.125 1171.300781 203.875 1161.917969 194.636719 1154.789062 C 180.046875 1143.203125 177.085938 1141.585938 159.40625 1141.566406 C 152.746094 1141.566406 153.875 1142.117188 152.957031 1143.453125 C 156.609375 1142.851562 154.042969 1142.914062 157.707031 1144.324219 C 159.328125 1144.953125 160.339844 1145.417969 161.703125 1145.894531 C 164.707031 1146.941406 167.394531 1147.542969 170.125 1148.644531 C 202.171875 1161.535156 216.992188 1216.363281 228.726562 1248.964844 C 239.371094 1278.539062 263.421875 1337.089844 269.394531 1367.242188 C 270.835938 1374.527344 269.15625 1380.976562 269.296875 1388.816406 Z M 269.296875 1388.816406 " fill-opacity="1" fill-rule="evenodd"/><path fill="#d7a196" d="M 996.636719 1182.539062 C 992.722656 1197.808594 964.386719 1270.957031 958.796875 1282.453125 C 951.300781 1297.863281 945.054688 1314.207031 936.125 1328.535156 C 931.15625 1336.515625 926.75 1342.230469 920.25 1347.042969 C 912 1353.148438 904.488281 1352.039062 895.730469 1355.847656 C 895.632812 1363.242188 898.195312 1360.914062 905.382812 1360.898438 C 915.773438 1360.875 929.445312 1365.304688 932.863281 1375.230469 C 942.433594 1403.027344 911.507812 1441.457031 895.9375 1461.167969 C 878.683594 1483 833.609375 1513.65625 811.894531 1531.328125 C 799.339844 1541.949219 787.457031 1553.335938 776.308594 1565.421875 C 763.898438 1580.183594 756.519531 1581.320312 761.417969 1589.34375 C 769.519531 1590.816406 772.273438 1583.757812 775.308594 1580.222656 C 793.882812 1559.089844 814.636719 1539.988281 837.230469 1523.230469 C 858.832031 1507.21875 870.886719 1498.671875 890.078125 1480.398438 C 898.308594 1472.480469 905.957031 1463.988281 912.96875 1454.976562 C 926.539062 1437.835938 938.527344 1417.902344 943.222656 1390.667969 C 944.011719 1369.128906 939.484375 1377.253906 947.78125 1349.460938 C 954.664062 1326.398438 962.746094 1304.390625 971.566406 1282.285156 C 986.410156 1245.09375 1003.050781 1180.242188 1028.707031 1157.253906 C 1032.863281 1153.367188 1037.761719 1150.363281 1043.105469 1148.414062 C 1047.078125 1146.886719 1056.792969 1143.125 1059.554688 1143.457031 C 1059.007812 1142.1875 1060.992188 1141.726562 1054.046875 1141.511719 C 1037.730469 1141.015625 1032.457031 1143.441406 1020.003906 1153.191406 C 1008.710938 1162.03125 1005.300781 1165.710938 999.042969 1177.765625 C 998.351562 1179.410156 997.550781 1181.007812 996.636719 1182.539062 Z M 996.636719 1182.539062 " fill-opacity="1" fill-rule="evenodd"/><g clip-path="url(#d28ef46fc1)"><path fill="#d7a196" d="M 583.195312 1556.070312 C 586.554688 1559.367188 590.113281 1574.761719 591.347656 1581.199219 C 600.582031 1629.324219 595.707031 1764.003906 592.125 1809.78125 L 596.648438 1809.832031 L 616.75 1809.832031 L 620.511719 1809.761719 C 618.941406 1788.34375 616.992188 1765.199219 617.804688 1743.769531 C 618.183594 1733.648438 616.683594 1721.351562 616.480469 1710.316406 C 615.871094 1676.039062 615.300781 1609.136719 621.882812 1578.253906 C 624.304688 1566.882812 627.316406 1561.394531 630.921875 1551.761719 C 623.226562 1556.152344 611.492188 1574.324219 609.4375 1587.273438 L 603.464844 1586.523438 C 599.382812 1576.625 593.171875 1558.179688 581.699219 1551.574219 Z M 583.195312 1556.070312 " fill-opacity="1" fill-rule="evenodd"/></g><g mask="url(#33b1c2f5c5)"><g transform="matrix(1, 0, 0, 1, 0, 168)"><g clip-path="url(#c5ec0cbb35)"><g clip-path="url(#c9de327630)"><path fill="#77cbf8" d="M -482.640625 169.921875 C -489.316406 165.238281 -497.890625 162.015625 -508.363281 160.257812 L -563.847656 160.417969 C -586.714844 173.117188 -602.914062 179.644531 -612.441406 180.007812 L -682.800781 187.574219 C -734.382812 186.515625 -763.101562 187.121094 -768.96875 189.386719 C -781.523438 193.136719 -789.742188 200.582031 -793.625 211.71875 C -796.902344 221.03125 -787.613281 227.242188 -765.761719 230.363281 C -763.683594 232.601562 -731.613281 231.957031 -669.554688 228.421875 C -648.566406 229.394531 -631.964844 231.355469 -619.75 234.316406 C -604.828125 238.386719 -597.8125 241.363281 -598.707031 243.246094 C -598.742188 245.007812 -610.488281 245.101562 -633.945312 243.535156 C -639.183594 244.03125 -645.464844 245.832031 -652.796875 248.933594 C -662.378906 253.902344 -661.28125 260.140625 -649.5 267.65625 C -646.960938 268.902344 -643.730469 269.695312 -639.804688 270.039062 C -616.332031 269.339844 -601.265625 269.636719 -594.617188 270.925781 C -571.277344 274.03125 -541.625 279.128906 -505.667969 286.214844 C -486.972656 287.648438 -463.367188 279.957031 -434.847656 263.136719 C -410.203125 262.855469 -396.300781 262.042969 -393.136719 260.699219 C -377.328125 249.621094 -367.710938 244.828125 -364.277344 246.320312 C -350.476562 250.777344 -341.367188 252.667969 -336.949219 251.992188 C -355.394531 274.839844 -351.339844 288.1875 -324.785156 292.035156 C -315.484375 295.082031 -264.328125 294 -171.320312 288.792969 L -48.332031 293.65625 C -23.308594 289.9375 -14.632812 283.304688 -22.300781 273.757812 C -31.277344 267.621094 -57.339844 262.65625 -100.492188 258.859375 C -104.046875 258.253906 -105.140625 256.898438 -103.777344 254.792969 C -100.507812 252.835938 -93.242188 251.5625 -81.980469 250.96875 C -43.214844 254.578125 -23.621094 255.710938 -23.195312 254.371094 C -12.542969 253.433594 -0.292969 250.03125 13.546875 244.160156 C 6.953125 264.617188 10.421875 277.109375 23.953125 281.632812 C 45.726562 287.464844 78.289062 289.351562 121.648438 287.304688 C 128.386719 287.457031 161.871094 283.160156 222.101562 274.414062 C 278.917969 275.230469 321.605469 272.617188 350.164062 266.566406 C 370.148438 262.085938 384.238281 254.988281 392.425781 245.265625 C 357.300781 241.792969 334.769531 240.535156 324.835938 241.496094 C 297.628906 233.753906 280 230.347656 271.949219 231.28125 C 285.988281 226.394531 304.9375 223.492188 328.800781 222.574219 L 392.609375 226.90625 C 398.519531 227.195312 403.882812 227.027344 408.703125 226.398438 L 466.023438 211.921875 C 469.394531 210.863281 471.074219 209.535156 471.066406 207.929688 C 461.535156 200.683594 402.160156 196.660156 292.941406 195.863281 C 268.355469 169.667969 241.296875 159.414062 211.761719 165.101562 C 205.886719 140.738281 195.234375 126.992188 179.796875 123.867188 C 171.566406 122.207031 161.738281 122.804688 150.324219 125.667969 C 139.054688 127.511719 126.515625 133.300781 112.703125 143.03125 C 110.550781 143.957031 106.84375 143.699219 101.578125 142.253906 C 78.109375 115.273438 54.910156 102.484375 31.976562 103.894531 C 17.675781 75.410156 4.054688 59.414062 -8.894531 55.90625 C -22.480469 49.980469 -36.40625 48.386719 -50.675781 51.128906 C -57.601562 52.246094 -64.125 54.023438 -70.246094 56.460938 C -75.515625 58.304688 -83.066406 62.914062 -92.902344 70.28125 C -95.097656 71.453125 -97.40625 71.714844 -99.835938 71.066406 C -165.695312 23.234375 -210.464844 -0.0117188 -234.148438 1.324219 C -266.832031 -1.453125 -303.707031 12.46875 -344.773438 43.085938 C -379.699219 70.152344 -395.296875 100.09375 -391.558594 132.910156 C -425.753906 110.644531 -457.765625 112.292969 -487.597656 137.855469 Z M -482.640625 169.921875 " fill-opacity="1" fill-rule="nonzero"/></g></g></g></g><g clip-path="url(#a3fd933de6)"><g mask="url(#221c7c3d91)"><g transform="matrix(1, 0, 0, 1, 621, 333)"><g clip-path="url(#5dc910abae)"><g clip-path="url(#357fb7025d)"><path fill="#77cbf8" d="M 261.949219 142.453125 C 256.351562 138.527344 249.164062 135.828125 240.382812 134.351562 L 193.859375 134.484375 C 174.683594 145.132812 161.105469 150.609375 153.117188 150.910156 L 94.117188 157.253906 C 50.871094 156.371094 26.789062 156.875 21.871094 158.777344 C 11.34375 161.921875 4.453125 168.164062 1.195312 177.5 C -1.550781 185.308594 6.238281 190.519531 24.558594 193.132812 C 26.300781 195.011719 53.191406 194.46875 105.226562 191.507812 C 122.824219 192.320312 136.746094 193.964844 146.984375 196.449219 C 159.5 199.859375 165.382812 202.355469 164.628906 203.9375 C 164.601562 205.410156 154.75 205.492188 135.085938 204.175781 C 130.691406 204.59375 125.425781 206.101562 119.277344 208.703125 C 111.242188 212.867188 112.164062 218.101562 122.042969 224.402344 C 124.171875 225.449219 126.878906 226.113281 130.171875 226.398438 C 149.855469 225.8125 162.484375 226.0625 168.058594 227.144531 C 187.632812 229.75 212.492188 234.023438 242.640625 239.964844 C 258.316406 241.167969 278.109375 234.714844 302.023438 220.613281 C 322.6875 220.375 334.34375 219.695312 336.996094 218.566406 C 350.25 209.277344 358.316406 205.261719 361.195312 206.511719 C 372.765625 210.25 380.402344 211.835938 384.109375 211.269531 C 368.640625 230.425781 372.042969 241.617188 394.308594 244.84375 C 402.105469 247.398438 445 246.492188 522.984375 242.125 L 626.105469 246.203125 C 647.085938 243.085938 654.363281 237.523438 647.933594 229.519531 C 640.40625 224.375 618.550781 220.210938 582.371094 217.023438 C 579.390625 216.519531 578.472656 215.382812 579.617188 213.617188 C 582.359375 211.976562 588.449219 210.910156 597.890625 210.410156 C 630.394531 213.4375 646.824219 214.386719 647.183594 213.261719 C 656.117188 212.476562 666.386719 209.625 677.992188 204.703125 C 672.460938 221.855469 675.371094 232.328125 686.714844 236.121094 C 704.96875 241.011719 732.277344 242.59375 768.632812 240.875 C 774.28125 241.003906 802.355469 237.402344 852.859375 230.070312 C 900.496094 230.753906 936.289062 228.5625 960.234375 223.488281 C 976.992188 219.734375 988.804688 213.78125 995.671875 205.628906 C 966.21875 202.714844 947.328125 201.664062 938.996094 202.46875 C 916.183594 195.976562 901.402344 193.121094 894.652344 193.90625 C 906.425781 189.808594 922.316406 187.371094 942.320312 186.601562 L 995.824219 190.234375 C 1000.78125 190.476562 1005.277344 190.335938 1009.320312 189.808594 L 1057.382812 177.671875 C 1060.207031 176.785156 1061.617188 175.667969 1061.609375 174.324219 C 1053.617188 168.246094 1003.832031 164.875 912.253906 164.207031 C 891.640625 142.242188 868.953125 133.644531 844.1875 138.414062 C 839.261719 117.984375 830.328125 106.460938 817.386719 103.839844 C 810.484375 102.445312 802.246094 102.949219 792.671875 105.347656 C 783.226562 106.894531 772.710938 111.746094 761.132812 119.90625 C 759.328125 120.683594 756.21875 120.46875 751.800781 119.257812 C 732.125 96.632812 712.671875 85.910156 693.441406 87.09375 C 681.453125 63.207031 670.03125 49.796875 659.175781 46.855469 C 647.78125 41.886719 636.105469 40.550781 624.140625 42.847656 C 618.332031 43.785156 612.863281 45.277344 607.734375 47.320312 C 603.3125 48.867188 596.980469 52.730469 588.734375 58.910156 C 586.894531 59.890625 584.957031 60.109375 582.921875 59.566406 C 527.703125 19.460938 490.164062 -0.03125 470.304688 1.089844 C 442.902344 -1.238281 411.980469 10.433594 377.546875 36.105469 C 348.261719 58.800781 335.1875 83.90625 338.320312 111.421875 C 309.648438 92.753906 282.804688 94.136719 257.792969 115.566406 Z M 261.949219 142.453125 " fill-opacity="1" fill-rule="nonzero"/></g><path fill="#77cbf8" d="M 330.476562 119.011719 C 313.738281 101.832031 292.496094 98.226562 266.75 108.195312 C 245.671875 117.765625 236.441406 134.925781 239.058594 159.6875 Z M 330.476562 119.011719 " fill-opacity="1" fill-rule="nonzero"/></g></g></g></g><g clip-path="url(#dfebd2b379)"><g mask="url(#e4d14bb573)"><g transform="matrix(1, 0, 0, 1, 474, 0.000000000000081102)"><g clip-path="url(#f43af94e18)"><g clip-path="url(#06596674de)"><path fill="#77cbf8" d="M 312.894531 98.757812 C 306.21875 94.074219 297.644531 90.851562 287.175781 89.09375 L 231.691406 89.253906 C 208.824219 101.953125 192.625 108.480469 183.097656 108.84375 L 112.734375 116.410156 C 61.15625 115.351562 32.433594 115.957031 26.570312 118.222656 C 14.015625 121.972656 5.796875 129.417969 1.910156 140.554688 C -1.363281 149.867188 7.921875 156.078125 29.773438 159.199219 C 31.851562 161.4375 63.921875 160.792969 125.984375 157.257812 C 146.972656 158.226562 163.574219 160.191406 175.785156 163.152344 C 190.710938 167.222656 197.726562 170.199219 196.832031 172.082031 C 196.792969 173.84375 185.046875 173.9375 161.59375 172.371094 C 156.355469 172.867188 150.070312 174.667969 142.742188 177.769531 C 133.160156 182.738281 134.257812 188.976562 146.039062 196.492188 C 148.578125 197.738281 151.808594 198.53125 155.730469 198.875 C 179.207031 198.175781 194.269531 198.472656 200.921875 199.761719 C 224.261719 202.867188 253.910156 207.964844 289.871094 215.050781 C 308.5625 216.484375 332.171875 208.792969 360.691406 191.972656 C 385.335938 191.691406 399.238281 190.878906 402.402344 189.535156 C 418.207031 178.453125 427.828125 173.664062 431.261719 175.15625 C 445.0625 179.613281 454.171875 181.503906 458.589844 180.828125 C 440.144531 203.675781 444.195312 217.023438 470.75 220.867188 C 480.054688 223.917969 531.207031 222.835938 624.21875 217.628906 L 747.207031 222.492188 C 772.226562 218.773438 780.902344 212.140625 773.234375 202.59375 C 764.261719 196.457031 738.195312 191.492188 695.046875 187.695312 C 691.492188 187.089844 690.394531 185.734375 691.761719 183.628906 C 695.03125 181.671875 702.292969 180.398438 713.554688 179.804688 C 752.320312 183.414062 771.917969 184.546875 772.339844 183.207031 C 782.996094 182.269531 795.246094 178.867188 809.085938 172.996094 C 802.492188 193.453125 805.957031 205.945312 819.488281 210.46875 C 841.261719 216.296875 873.828125 218.1875 917.1875 216.136719 C 923.925781 216.292969 957.410156 211.996094 1017.640625 203.25 C 1074.457031 204.066406 1117.140625 201.453125 1145.699219 195.402344 C 1165.683594 190.921875 1179.773438 183.824219 1187.964844 174.101562 C 1152.839844 170.628906 1130.308594 169.371094 1120.375 170.332031 C 1093.164062 162.585938 1075.535156 159.183594 1067.488281 160.117188 C 1081.527344 155.230469 1100.476562 152.328125 1124.335938 151.410156 L 1188.148438 155.742188 C 1194.054688 156.03125 1199.421875 155.863281 1204.242188 155.234375 L 1261.5625 140.757812 C 1264.933594 139.699219 1266.613281 138.371094 1266.605469 136.765625 C 1257.074219 129.519531 1197.699219 125.496094 1088.476562 124.699219 C 1063.894531 98.503906 1036.832031 88.25 1007.296875 93.9375 C 1001.425781 69.574219 990.769531 55.828125 975.335938 52.703125 C 967.101562 51.042969 957.277344 51.640625 945.859375 54.503906 C 934.59375 56.347656 922.054688 62.136719 908.242188 71.867188 C 906.089844 72.792969 902.382812 72.535156 897.117188 71.089844 C 873.648438 44.109375 850.445312 31.320312 827.511719 32.730469 C 813.214844 4.246094 799.589844 -11.75 786.644531 -15.257812 C 773.058594 -21.183594 759.128906 -22.777344 744.863281 -20.035156 C 737.933594 -18.917969 731.410156 -17.140625 725.292969 -14.703125 C 720.023438 -12.859375 712.46875 -8.25 702.636719 -0.882812 C 700.441406 0.289062 698.128906 0.550781 695.703125 -0.101562 C 629.84375 -47.929688 585.074219 -71.175781 561.390625 -69.839844 C 528.707031 -72.617188 491.832031 -58.695312 450.765625 -28.078125 C 415.835938 -1.011719 400.242188 28.929688 403.980469 61.746094 C 369.785156 39.480469 337.769531 41.128906 307.941406 66.691406 Z M 312.894531 98.757812 " fill-opacity="1" fill-rule="nonzero"/></g><path fill="#77cbf8" d="M 394.625 70.796875 C 374.664062 50.3125 349.328125 46.011719 318.625 57.898438 C 293.484375 69.308594 282.476562 89.78125 285.597656 119.308594 Z M 394.625 70.796875 " fill-opacity="1" fill-rule="nonzero"/></g></g></g></g><g clip-path="url(#3723dc582d)"><path fill="#fdfdfd" d="M -29.042969 582.019531 L -33.160156 582.140625 C -37.554688 582.121094 -42.046875 582.890625 -46.632812 584.453125 C -54.730469 587.730469 -60.621094 590.917969 -64.296875 594.019531 C -72.339844 602.402344 -76.953125 612.457031 -78.132812 624.1875 C -88.328125 625.667969 -98.320312 629.503906 -108.105469 635.699219 C -120.769531 648.132812 -126.351562 657.21875 -124.847656 662.949219 C -131.019531 662.441406 -137.148438 662.929688 -143.226562 664.40625 C -147.816406 664.957031 -155.347656 668.363281 -165.820312 674.617188 C -186.492188 668.914062 -200.679688 667.320312 -208.382812 669.832031 C -215.566406 671.476562 -225.308594 679.304688 -237.597656 693.320312 C -273.203125 692.144531 -298.234375 696.957031 -312.699219 707.761719 C -311.722656 708.246094 -307.910156 708.648438 -301.265625 708.96875 C -279.847656 709.339844 -230.882812 711.441406 -154.371094 715.273438 L -124.9375 715.160156 L -88.589844 720.207031 C -83.003906 720.085938 -74.734375 717.707031 -63.777344 713.0625 C -52.617188 717.699219 -45.4375 720.078125 -42.246094 720.203125 C -38.164062 720.167969 -35.058594 719.847656 -32.933594 719.238281 C -24.90625 715.542969 -20.105469 713.652344 -18.527344 713.558594 C -0.769531 721.566406 11.519531 726.4375 18.34375 728.171875 C 27.121094 730.863281 37.238281 732.246094 48.699219 732.316406 C 57.210938 731.84375 64.433594 730.046875 70.371094 726.921875 C 74.914062 724.765625 82.09375 718.601562 91.917969 708.4375 C 94.492188 706.703125 97.066406 705.636719 99.648438 705.234375 C 140.246094 703.554688 190.824219 703.070312 251.386719 703.78125 C 263.34375 703.109375 269.644531 701.804688 270.289062 699.859375 C 262.820312 692.695312 256.066406 688.371094 250.019531 686.886719 C 245.453125 685.703125 241.511719 685.054688 238.199219 684.945312 L 207.386719 685.40625 C 192.363281 676.898438 178 671.175781 164.292969 668.234375 C 153.140625 667.0625 145.867188 666.761719 142.46875 667.328125 L 110.460938 673.769531 C 98.652344 666.089844 90.800781 661.695312 86.910156 660.578125 C 81.3125 658.328125 76.261719 657.089844 71.757812 656.867188 C 71.355469 650.042969 58.71875 641.984375 33.847656 632.683594 C 23.71875 612.355469 14.253906 599.117188 5.449219 592.964844 C -4.664062 585.757812 -16.160156 582.109375 -29.042969 582.019531 " fill-opacity="0.996" fill-rule="nonzero"/></g><g clip-path="url(#03a8ef11cf)"><path fill="#fdfdfd" d="M 1143.335938 141.53125 L 1139.734375 141.640625 C 1135.890625 141.621094 1131.957031 142.292969 1127.945312 143.660156 C 1120.859375 146.527344 1115.707031 149.320312 1112.488281 152.03125 C 1105.449219 159.367188 1101.414062 168.167969 1100.378906 178.433594 C 1091.457031 179.726562 1082.714844 183.082031 1074.152344 188.503906 C 1063.070312 199.386719 1058.1875 207.332031 1059.503906 212.351562 C 1054.101562 211.90625 1048.742188 212.332031 1043.417969 213.625 C 1039.40625 214.109375 1032.816406 217.085938 1023.648438 222.5625 C 1005.5625 217.570312 993.148438 216.171875 986.40625 218.371094 C 980.117188 219.8125 971.597656 226.664062 960.839844 238.925781 C 929.6875 237.894531 907.78125 242.109375 895.121094 251.566406 C 895.976562 251.984375 899.3125 252.335938 905.128906 252.621094 C 923.871094 252.941406 966.71875 254.78125 1033.667969 258.136719 L 1059.421875 258.039062 L 1091.230469 262.453125 C 1096.117188 262.347656 1103.355469 260.265625 1112.941406 256.203125 C 1122.710938 260.257812 1128.988281 262.34375 1131.78125 262.449219 C 1135.355469 262.417969 1138.070312 262.136719 1139.929688 261.605469 C 1146.957031 258.375 1151.15625 256.71875 1152.535156 256.636719 C 1168.074219 263.640625 1178.832031 267.902344 1184.804688 269.421875 C 1192.484375 271.777344 1201.335938 272.988281 1211.367188 273.050781 C 1218.8125 272.636719 1225.132812 271.0625 1230.328125 268.332031 C 1234.304688 266.441406 1240.589844 261.050781 1249.183594 252.152344 C 1251.433594 250.636719 1253.691406 249.703125 1255.949219 249.351562 C 1291.472656 247.878906 1335.730469 247.457031 1388.726562 248.078125 C 1399.191406 247.492188 1404.703125 246.351562 1405.265625 244.648438 C 1398.730469 238.378906 1392.820312 234.59375 1387.53125 233.296875 C 1383.535156 232.261719 1380.085938 231.695312 1377.1875 231.597656 L 1350.222656 232 C 1337.078125 224.558594 1324.507812 219.546875 1312.515625 216.972656 C 1302.757812 215.949219 1296.390625 215.6875 1293.417969 216.179688 L 1265.410156 221.816406 C 1255.074219 215.097656 1248.207031 211.25 1244.800781 210.273438 C 1239.902344 208.304688 1235.484375 207.222656 1231.542969 207.027344 C 1231.1875 201.058594 1220.132812 194.003906 1198.367188 185.867188 C 1189.503906 168.078125 1181.222656 156.496094 1173.519531 151.109375 C 1164.667969 144.804688 1154.609375 141.609375 1143.335938 141.53125 " fill-opacity="0.996" fill-rule="nonzero"/></g><g clip-path="url(#42439aa952)"><path fill="#fdfdfd" d="M 341.195312 46.605469 L 338.710938 46.679688 C 336.058594 46.664062 333.347656 47.128906 330.578125 48.074219 C 325.6875 50.050781 322.136719 51.976562 319.914062 53.847656 C 315.0625 58.90625 312.277344 64.976562 311.566406 72.054688 C 305.410156 72.949219 299.378906 75.265625 293.472656 79.003906 C 285.832031 86.507812 282.460938 91.992188 283.371094 95.453125 C 279.644531 95.144531 275.945312 95.4375 272.277344 96.332031 C 269.507812 96.664062 264.960938 98.71875 258.640625 102.496094 C 246.164062 99.050781 237.601562 98.089844 232.949219 99.605469 C 228.613281 100.597656 222.734375 105.324219 215.316406 113.78125 C 193.828125 113.070312 178.71875 115.976562 169.988281 122.5 C 170.578125 122.789062 172.878906 123.03125 176.890625 123.226562 C 189.816406 123.449219 219.371094 124.71875 265.550781 127.03125 L 283.316406 126.964844 L 305.253906 130.011719 C 308.625 129.9375 313.617188 128.5 320.230469 125.699219 C 326.964844 128.496094 331.296875 129.933594 333.226562 130.007812 C 335.6875 129.988281 337.5625 129.792969 338.84375 129.425781 C 343.691406 127.195312 346.589844 126.054688 347.539062 125.996094 C 358.257812 130.828125 365.675781 133.769531 369.796875 134.816406 C 375.09375 136.441406 381.199219 137.277344 388.117188 137.320312 C 393.253906 137.035156 397.613281 135.949219 401.195312 134.0625 C 403.9375 132.761719 408.273438 129.042969 414.203125 122.90625 C 415.753906 121.859375 417.3125 121.214844 418.867188 120.972656 C 443.371094 119.957031 473.898438 119.667969 510.453125 120.097656 C 517.671875 119.691406 521.472656 118.902344 521.859375 117.730469 C 517.351562 113.402344 513.277344 110.792969 509.628906 109.898438 C 506.871094 109.183594 504.492188 108.792969 502.492188 108.726562 L 483.894531 109.003906 C 474.828125 103.871094 466.160156 100.417969 457.886719 98.640625 C 451.15625 97.933594 446.765625 97.753906 444.714844 98.09375 L 425.394531 101.980469 C 418.265625 97.347656 413.527344 94.695312 411.179688 94.019531 C 407.800781 92.660156 404.753906 91.914062 402.035156 91.78125 C 401.789062 87.664062 394.164062 82.796875 379.152344 77.183594 C 373.039062 64.914062 367.324219 56.925781 362.011719 53.210938 C 355.910156 48.859375 348.96875 46.660156 341.195312 46.605469 " fill-opacity="0.996" fill-rule="nonzero"/></g><g clip-path="url(#9b3404e9e4)"><path fill="#fdfdfd" d="M 1100.929688 691.859375 L 1098.445312 691.933594 C 1095.792969 691.921875 1093.082031 692.386719 1090.3125 693.328125 C 1085.421875 695.308594 1081.871094 697.230469 1079.648438 699.101562 C 1074.796875 704.164062 1072.011719 710.234375 1071.296875 717.3125 C 1065.144531 718.207031 1059.113281 720.519531 1053.207031 724.261719 C 1045.566406 731.765625 1042.195312 737.246094 1043.105469 740.707031 C 1039.378906 740.402344 1035.679688 740.695312 1032.007812 741.589844 C 1029.242188 741.921875 1024.695312 743.972656 1018.375 747.75 C 1005.898438 744.308594 997.335938 743.34375 992.683594 744.863281 C 988.347656 745.855469 982.46875 750.578125 975.050781 759.039062 C 953.5625 758.328125 938.453125 761.234375 929.722656 767.757812 C 930.3125 768.046875 932.613281 768.289062 936.621094 768.484375 C 949.550781 768.707031 979.105469 769.976562 1025.285156 772.289062 L 1043.046875 772.222656 L 1064.988281 775.265625 C 1068.359375 775.195312 1073.351562 773.757812 1079.964844 770.953125 C 1086.699219 773.753906 1091.03125 775.191406 1092.960938 775.265625 C 1095.421875 775.242188 1097.296875 775.050781 1098.578125 774.679688 C 1103.425781 772.453125 1106.324219 771.308594 1107.273438 771.253906 C 1117.992188 776.085938 1125.410156 779.027344 1129.53125 780.074219 C 1134.828125 781.699219 1140.933594 782.53125 1147.851562 782.578125 C 1152.988281 782.289062 1157.347656 781.207031 1160.929688 779.320312 C 1163.671875 778.019531 1168.007812 774.296875 1173.9375 768.164062 C 1175.488281 767.117188 1177.042969 766.472656 1178.601562 766.230469 C 1203.105469 765.214844 1233.632812 764.921875 1270.183594 765.351562 C 1277.402344 764.949219 1281.207031 764.160156 1281.59375 762.984375 C 1277.085938 758.660156 1273.011719 756.050781 1269.363281 755.15625 C 1266.605469 754.441406 1264.226562 754.050781 1262.226562 753.984375 L 1243.628906 754.261719 C 1234.5625 749.128906 1225.894531 745.671875 1217.621094 743.898438 C 1210.890625 743.191406 1206.5 743.007812 1204.449219 743.351562 L 1185.128906 747.238281 C 1178 742.605469 1173.261719 739.949219 1170.914062 739.277344 C 1167.535156 737.917969 1164.488281 737.171875 1161.769531 737.039062 C 1161.523438 732.917969 1153.898438 728.054688 1138.886719 722.441406 C 1132.773438 710.171875 1127.058594 702.179688 1121.746094 698.46875 C 1115.640625 694.117188 1108.703125 691.914062 1100.929688 691.859375 " fill-opacity="0.996" fill-rule="nonzero"/></g><g clip-path="url(#47e11d1179)"><g transform="matrix(1, 0, 0, 1, 684, 754)"><g clip-path="url(#8bfadbc096)"><g clip-path="url(#7ecbe83633)"><path fill="#76caf6" d="M 16.566406 64.761719 C 14.855469 59.066406 36.417969 25.132812 43.695312 17.777344 C 48.101562 13.328125 58.425781 2.921875 64.691406 1.296875 C 68.460938 0.320312 68.039062 2.296875 68.039062 5.398438 L 64.378906 7.257812 C 64.367188 16.628906 66.609375 23.433594 69.03125 30.722656 C 79.367188 61.835938 104.796875 110.105469 89.875 143.515625 C 85.664062 152.953125 79.503906 161.242188 70.289062 166.160156 C 67.632812 167.582031 63.03125 170.042969 59.46875 169.960938 L 55.574219 171.035156 C 33.3125 174.308594 14.523438 157.839844 8.785156 137.476562 C 5.054688 124.230469 5.09375 113.855469 6.773438 98.988281 C 7.90625 89.988281 9.898438 81.117188 12.71875 72.496094 C 13.5 69.976562 14.488281 66.117188 16.566406 64.761719 Z M 16.566406 64.761719 " fill-opacity="1" fill-rule="evenodd"/></g><path fill="#49a5f2" d="M 59.46875 169.957031 L 55.574219 171.03125 C 33.3125 174.304688 14.523438 157.835938 8.785156 137.472656 C 5.054688 124.226562 5.09375 113.847656 6.773438 98.980469 C 7.90625 89.980469 9.894531 81.109375 12.71875 72.492188 C 13.5 69.980469 14.492188 66.117188 16.558594 64.761719 C 12.855469 79.785156 21.929688 115.226562 26.613281 128.175781 C 29.726562 136.910156 34.039062 145.171875 39.429688 152.722656 C 42.804688 157.316406 52.988281 168.605469 59.46875 169.957031 Z M 59.46875 169.957031 " fill-opacity="1" fill-rule="evenodd"/></g></g></g><g clip-path="url(#84f7218fce)"><g transform="matrix(1, 0, 0, 1, 77, 388)"><g clip-path="url(#d4873438b3)"><g clip-path="url(#17815a2787)"><path fill="#76caf6" d="M 10.109375 39.003906 C 9.09375 35.613281 21.910156 15.410156 26.234375 11.035156 C 28.855469 8.382812 34.992188 2.1875 38.714844 1.222656 C 40.957031 0.640625 40.703125 1.816406 40.703125 3.664062 L 38.53125 4.769531 C 38.523438 10.347656 39.855469 14.398438 41.292969 18.738281 C 47.4375 37.261719 62.554688 65.996094 53.6875 85.886719 C 51.179688 91.503906 47.519531 96.441406 42.042969 99.367188 C 40.460938 100.214844 37.730469 101.679688 35.613281 101.632812 L 33.296875 102.269531 C 20.0625 104.21875 8.894531 94.414062 5.484375 82.292969 C 3.265625 74.40625 3.289062 68.230469 4.289062 59.378906 C 4.960938 54.019531 6.144531 48.738281 7.824219 43.605469 C 8.285156 42.109375 8.875 39.8125 10.109375 39.003906 Z M 10.109375 39.003906 " fill-opacity="1" fill-rule="evenodd"/></g><path fill="#49a5f2" d="M 35.613281 101.628906 L 33.296875 102.269531 C 20.0625 104.21875 8.894531 94.414062 5.484375 82.289062 C 3.265625 74.40625 3.289062 68.226562 4.289062 59.375 C 4.960938 54.019531 6.144531 48.738281 7.824219 43.605469 C 8.285156 42.109375 8.875 39.8125 10.105469 39.003906 C 7.902344 47.945312 13.296875 69.046875 16.082031 76.753906 C 17.933594 81.957031 20.496094 86.875 23.699219 91.367188 C 25.707031 94.101562 31.757812 100.824219 35.613281 101.628906 Z M 35.613281 101.628906 " fill-opacity="1" fill-rule="evenodd"/></g></g></g><g clip-path="url(#d5c57d0f68)"><g transform="matrix(1, 0, 0, 1, 906, 878)"><g clip-path="url(#e5b5befa7a)"><g clip-path="url(#9a6ce0185a)"><path fill="#76caf6" d="M 10.335938 38.273438 C 9.320312 34.886719 22.136719 14.683594 26.460938 10.304688 C 29.082031 7.65625 35.21875 1.460938 38.941406 0.492188 C 41.183594 -0.0859375 40.933594 1.089844 40.933594 2.933594 L 38.757812 4.042969 C 38.75 9.621094 40.082031 13.671875 41.519531 18.011719 C 47.664062 36.535156 62.78125 65.269531 53.914062 85.160156 C 51.40625 90.777344 47.746094 95.710938 42.269531 98.640625 C 40.691406 99.488281 37.957031 100.953125 35.839844 100.902344 L 33.523438 101.542969 C 20.292969 103.492188 9.121094 93.6875 5.710938 81.5625 C 3.496094 73.679688 3.515625 67.5 4.515625 58.648438 C 5.1875 53.292969 6.371094 48.011719 8.050781 42.878906 C 8.511719 41.378906 9.101562 39.082031 10.335938 38.273438 Z M 10.335938 38.273438 " fill-opacity="1" fill-rule="evenodd"/></g><path fill="#49a5f2" d="M 35.839844 100.902344 L 33.523438 101.539062 C 20.292969 103.488281 9.121094 93.683594 5.710938 81.558594 C 3.496094 73.675781 3.515625 67.496094 4.515625 58.648438 C 5.1875 53.289062 6.371094 48.007812 8.050781 42.875 C 8.511719 41.382812 9.105469 39.082031 10.332031 38.273438 C 8.132812 47.21875 13.523438 68.316406 16.308594 76.027344 C 18.160156 81.226562 20.722656 86.144531 23.925781 90.640625 C 25.933594 93.375 31.988281 100.09375 35.839844 100.902344 Z M 35.839844 100.902344 " fill-opacity="1" fill-rule="evenodd"/></g></g></g><g clip-path="url(#3ed79c6a62)"><g transform="matrix(1, 0, 0, 1, 210, 790)"><g clip-path="url(#dfb49432d0)"><g clip-path="url(#2efc54eef0)"><path fill="#76caf6" d="M 4.792969 17.644531 C 4.332031 16.101562 10.160156 6.914062 12.128906 4.921875 C 13.320312 3.71875 16.113281 0.898438 17.808594 0.460938 C 18.824219 0.195312 18.710938 0.730469 18.710938 1.570312 L 17.722656 2.074219 C 17.71875 4.609375 18.324219 6.453125 18.980469 8.425781 C 21.773438 16.851562 28.652344 29.921875 24.617188 38.96875 C 23.476562 41.523438 21.8125 43.769531 19.320312 45.101562 C 18.601562 45.484375 17.359375 46.152344 16.394531 46.128906 L 15.339844 46.421875 C 9.324219 47.308594 4.242188 42.847656 2.691406 37.332031 C 1.679688 33.746094 1.691406 30.9375 2.144531 26.910156 C 2.453125 24.476562 2.992188 22.074219 3.753906 19.738281 C 3.964844 19.058594 4.230469 18.011719 4.792969 17.644531 Z M 4.792969 17.644531 " fill-opacity="1" fill-rule="evenodd"/></g><path fill="#49a5f2" d="M 16.394531 46.128906 L 15.339844 46.417969 C 9.324219 47.304688 4.242188 42.847656 2.691406 37.332031 C 1.679688 33.746094 1.691406 30.9375 2.144531 26.910156 C 2.453125 24.472656 2.988281 22.070312 3.753906 19.738281 C 3.964844 19.058594 4.234375 18.011719 4.792969 17.644531 C 3.789062 21.710938 6.246094 31.308594 7.511719 34.816406 C 8.351562 37.179688 9.519531 39.417969 10.976562 41.460938 C 11.886719 42.707031 14.640625 45.761719 16.394531 46.128906 Z M 16.394531 46.128906 " fill-opacity="1" fill-rule="evenodd"/></g></g></g><g clip-path="url(#9262280031)"><g transform="matrix(1, 0, 0, 1, 1105, 521)"><g clip-path="url(#bf9e812792)"><g clip-path="url(#14c5329a51)"><path fill="#76caf6" d="M 5.25 17.757812 C 4.789062 16.21875 10.617188 7.027344 12.585938 5.039062 C 13.777344 3.832031 16.566406 1.015625 18.261719 0.574219 C 19.28125 0.308594 19.167969 0.84375 19.167969 1.683594 L 18.179688 2.1875 C 18.175781 4.726562 18.78125 6.570312 19.433594 8.542969 C 22.230469 16.96875 29.105469 30.035156 25.074219 39.085938 C 23.933594 41.640625 22.269531 43.882812 19.777344 45.214844 C 19.058594 45.601562 17.8125 46.265625 16.851562 46.246094 L 15.796875 46.535156 C 9.777344 47.421875 4.699219 42.960938 3.144531 37.449219 C 2.136719 33.863281 2.148438 31.050781 2.601562 27.027344 C 2.90625 24.589844 3.445312 22.1875 4.210938 19.851562 C 4.421875 19.171875 4.6875 18.125 5.25 17.757812 Z M 5.25 17.757812 " fill-opacity="1" fill-rule="evenodd"/></g><path fill="#49a5f2" d="M 16.851562 46.242188 L 15.796875 46.535156 C 9.777344 47.421875 4.699219 42.960938 3.144531 37.445312 C 2.136719 33.859375 2.148438 31.050781 2.601562 27.023438 C 2.90625 24.589844 3.445312 22.1875 4.210938 19.851562 C 4.421875 19.171875 4.6875 18.125 5.246094 17.757812 C 4.246094 21.828125 6.699219 31.425781 7.964844 34.929688 C 8.808594 37.296875 9.972656 39.53125 11.429688 41.578125 C 12.34375 42.820312 15.097656 45.878906 16.851562 46.242188 Z M 16.851562 46.242188 " fill-opacity="1" fill-rule="evenodd"/></g></g></g><g clip-path="url(#91716b8e6e)"><g transform="matrix(1, 0, 0, 1, 1088, 1509)"><g clip-path="url(#118fab728d)"><g clip-path="url(#24127f6987)"><path fill="#76caf6" d="M 8.011719 29.160156 C 7.257812 26.640625 16.78125 11.636719 19.996094 8.382812 C 21.941406 6.414062 26.5 1.816406 29.269531 1.097656 C 30.933594 0.664062 30.746094 1.539062 30.746094 2.910156 L 29.132812 3.730469 C 29.125 7.875 30.117188 10.886719 31.1875 14.109375 C 35.75 27.867188 46.984375 49.210938 40.394531 63.984375 C 38.53125 68.15625 35.8125 71.824219 31.742188 74 C 30.566406 74.628906 28.535156 75.714844 26.960938 75.679688 L 25.242188 76.15625 C 15.410156 77.601562 7.109375 70.320312 4.574219 61.3125 C 2.925781 55.457031 2.941406 50.867188 3.6875 44.292969 C 4.1875 40.316406 5.066406 36.390625 6.3125 32.578125 C 6.65625 31.464844 7.09375 29.761719 8.011719 29.160156 Z M 8.011719 29.160156 " fill-opacity="1" fill-rule="evenodd"/></g><path fill="#49a5f2" d="M 26.960938 75.679688 L 25.242188 76.152344 C 15.410156 77.601562 7.109375 70.316406 4.574219 61.3125 C 2.925781 55.457031 2.941406 50.867188 3.6875 44.292969 C 4.183594 40.3125 5.066406 36.390625 6.3125 32.578125 C 6.65625 31.46875 7.09375 29.761719 8.007812 29.160156 C 6.371094 35.804688 10.378906 51.476562 12.449219 57.203125 C 13.824219 61.0625 15.730469 64.71875 18.109375 68.054688 C 19.601562 70.085938 24.101562 75.078125 26.960938 75.679688 Z M 26.960938 75.679688 " fill-opacity="1" fill-rule="evenodd"/></g></g></g><g clip-path="url(#e06de3a8cc)"><g transform="matrix(1, 0, 0, 1, 77, 1488)"><g clip-path="url(#be1e1718bb)"><g clip-path="url(#b914b205f3)"><path fill="#76caf6" d="M 5.503906 20.917969 C 4.972656 19.144531 11.683594 8.578125 13.945312 6.289062 C 15.320312 4.902344 18.53125 1.660156 20.480469 1.15625 C 21.652344 0.851562 21.523438 1.464844 21.523438 2.433594 L 20.382812 3.011719 C 20.378906 5.929688 21.078125 8.046875 21.832031 10.316406 C 25.046875 20.003906 32.960938 35.035156 28.316406 45.4375 C 27.007812 48.375 25.089844 50.957031 22.222656 52.488281 C 21.394531 52.929688 19.964844 53.695312 18.855469 53.671875 L 17.644531 54.007812 C 10.714844 55.023438 4.867188 49.898438 3.082031 43.554688 C 1.921875 39.433594 1.933594 36.203125 2.457031 31.574219 C 2.808594 28.769531 3.429688 26.007812 4.308594 23.324219 C 4.550781 22.539062 4.859375 21.339844 5.503906 20.917969 Z M 5.503906 20.917969 " fill-opacity="1" fill-rule="evenodd"/></g><path fill="#49a5f2" d="M 18.855469 53.667969 L 17.644531 54.003906 C 10.714844 55.023438 4.867188 49.894531 3.082031 43.554688 C 1.921875 39.429688 1.933594 36.199219 2.457031 31.570312 C 2.808594 28.769531 3.429688 26.007812 4.308594 23.324219 C 4.550781 22.539062 4.859375 21.339844 5.503906 20.917969 C 4.351562 25.59375 7.175781 36.628906 8.632812 40.660156 C 9.601562 43.378906 10.941406 45.953125 12.621094 48.304688 C 13.667969 49.734375 16.839844 53.25 18.855469 53.667969 Z M 18.855469 53.667969 " fill-opacity="1" fill-rule="evenodd"/></g></g></g><g clip-path="url(#bdea7475a2)"><g transform="matrix(1, 0, 0, 1, 223, 52)"><g clip-path="url(#30b374b283)"><g clip-path="url(#e2389daf06)"><path fill="#76caf6" d="M 5.292969 17.347656 C 4.832031 15.808594 10.660156 6.617188 12.628906 4.628906 C 13.820312 3.421875 16.613281 0.605469 18.308594 0.164062 C 19.324219 -0.0976562 19.210938 0.433594 19.210938 1.273438 L 18.222656 1.777344 C 18.21875 4.316406 18.824219 6.160156 19.480469 8.132812 C 22.273438 16.558594 29.152344 29.625 25.117188 38.675781 C 23.976562 41.230469 22.3125 43.472656 19.820312 44.804688 C 19.101562 45.191406 17.859375 45.855469 16.894531 45.835938 L 15.839844 46.125 C 9.820312 47.011719 4.742188 42.550781 3.1875 37.039062 C 2.179688 33.453125 2.191406 30.640625 2.644531 26.617188 C 2.953125 24.179688 3.492188 21.777344 4.253906 19.441406 C 4.464844 18.761719 4.730469 17.714844 5.292969 17.347656 Z M 5.292969 17.347656 " fill-opacity="1" fill-rule="evenodd"/></g><path fill="#49a5f2" d="M 16.894531 45.832031 L 15.839844 46.125 C 9.820312 47.011719 4.742188 42.550781 3.1875 37.035156 C 2.179688 33.453125 2.191406 30.640625 2.644531 26.617188 C 2.953125 24.179688 3.488281 21.777344 4.253906 19.441406 C 4.464844 18.761719 4.734375 17.714844 5.292969 17.347656 C 4.289062 21.417969 6.742188 31.015625 8.011719 34.519531 C 8.851562 36.886719 10.019531 39.121094 11.476562 41.167969 C 12.386719 42.410156 15.140625 45.46875 16.894531 45.832031 Z M 16.894531 45.832031 " fill-opacity="1" fill-rule="evenodd"/></g></g></g><g clip-path="url(#cb34b1f86e)"><g transform="matrix(1, 0, 0, 1, 974, 65)"><g clip-path="url(#2816b50e51)"><g clip-path="url(#047a751d1f)"><path fill="#76caf6" d="M 9.644531 36.53125 C 8.675781 33.296875 20.910156 14.023438 25.042969 9.847656 C 27.546875 7.316406 33.40625 1.40625 36.960938 0.484375 C 39.101562 -0.0703125 38.859375 1.050781 38.859375 2.8125 L 36.785156 3.871094 C 36.777344 9.191406 38.046875 13.058594 39.421875 17.199219 C 45.289062 34.871094 59.726562 62.28125 51.257812 81.257812 C 48.863281 86.617188 45.367188 91.328125 40.136719 94.121094 C 38.628906 94.929688 36.019531 96.324219 33.996094 96.28125 L 31.785156 96.890625 C 19.152344 98.75 8.484375 89.394531 5.226562 77.828125 C 3.113281 70.308594 3.132812 64.414062 4.085938 55.96875 C 4.730469 50.855469 5.859375 45.820312 7.460938 40.921875 C 7.902344 39.492188 8.464844 37.300781 9.644531 36.53125 Z M 9.644531 36.53125 " fill-opacity="1" fill-rule="evenodd"/></g><path fill="#49a5f2" d="M 33.996094 96.277344 L 31.785156 96.886719 C 19.152344 98.746094 8.484375 89.390625 5.226562 77.824219 C 3.113281 70.304688 3.132812 64.410156 4.085938 55.964844 C 4.730469 50.855469 5.859375 45.816406 7.460938 40.921875 C 7.902344 39.496094 8.46875 37.300781 9.640625 36.53125 C 7.539062 45.0625 12.691406 65.191406 15.347656 72.546875 C 17.113281 77.507812 19.5625 82.199219 22.621094 86.488281 C 24.539062 89.097656 30.320312 95.507812 33.996094 96.277344 Z M 33.996094 96.277344 " fill-opacity="1" fill-rule="evenodd"/></g></g></g><g fill="#49a5f2" fill-opacity="1"><g transform="translate(497.816348, 392.983832)"><g><path d="M 58.78125 -16.234375 C 51.664062 -16.234375 43.828125 -17.421875 35.265625 -19.796875 C 26.703125 -22.171875 17.988281 -25.523438 9.125 -29.859375 L 13.453125 -40.375 C 22.015625 -36.039062 30.054688 -32.738281 37.578125 -30.46875 C 45.109375 -28.195312 52.484375 -27.0625 59.703125 -27.0625 C 71.773438 -27.0625 77.8125 -30.46875 77.8125 -37.28125 C 77.8125 -39.75 76.78125 -41.734375 74.71875 -43.234375 C 72.65625 -44.734375 70.078125 -45.867188 66.984375 -46.640625 C 63.890625 -47.410156 59.398438 -48.363281 53.515625 -49.5 C 43.929688 -51.25 36.019531 -53.15625 29.78125 -55.21875 C 23.539062 -57.28125 18.148438 -60.8125 13.609375 -65.8125 C 9.078125 -70.820312 6.8125 -77.8125 6.8125 -86.78125 C 6.8125 -95.132812 8.894531 -102.300781 13.0625 -108.28125 C 17.238281 -114.257812 23.21875 -118.847656 31 -122.046875 C 38.789062 -125.242188 48.050781 -126.84375 58.78125 -126.84375 C 67.238281 -126.84375 76.109375 -125.890625 85.390625 -123.984375 C 94.671875 -122.078125 102.765625 -119.578125 109.671875 -116.484375 L 105.8125 -106.109375 C 98.175781 -109.203125 90.257812 -111.625 82.0625 -113.375 C 73.863281 -115.132812 66.101562 -116.015625 58.78125 -116.015625 C 51.144531 -116.015625 44.363281 -114.984375 38.4375 -112.921875 C 32.507812 -110.859375 27.867188 -107.6875 24.515625 -103.40625 C 21.160156 -99.125 19.484375 -93.738281 19.484375 -87.25 C 19.484375 -80.644531 21.238281 -75.484375 24.75 -71.765625 C 28.257812 -68.054688 32.539062 -65.425781 37.59375 -63.875 C 42.644531 -62.332031 49.347656 -60.890625 57.703125 -59.546875 C 65.023438 -58.316406 70.847656 -57.082031 75.171875 -55.84375 C 79.503906 -54.601562 83.140625 -52.585938 86.078125 -49.796875 C 89.015625 -47.015625 90.484375 -43.203125 90.484375 -38.359375 C 90.484375 -31.035156 87.773438 -25.515625 82.359375 -21.796875 C 76.953125 -18.085938 69.09375 -16.234375 58.78125 -16.234375 Z M 58.15625 3.09375 C 48.46875 3.09375 38.695312 1.804688 28.84375 -0.765625 C 19 -3.347656 9.898438 -7.007812 1.546875 -11.75 L 6.03125 -22.28125 C 15.3125 -17.632812 24.488281 -14.070312 33.5625 -11.59375 C 42.632812 -9.125 51.09375 -7.890625 58.9375 -7.890625 C 72.03125 -7.890625 82.160156 -10.492188 89.328125 -15.703125 C 96.492188 -20.910156 100.078125 -28.671875 100.078125 -38.984375 C 100.078125 -45.890625 98.269531 -51.222656 94.65625 -54.984375 C 91.050781 -58.753906 86.695312 -61.410156 81.59375 -62.953125 C 76.488281 -64.503906 69.707031 -65.945312 61.25 -67.28125 C 53.925781 -68.414062 48.148438 -69.578125 43.921875 -70.765625 C 39.703125 -71.953125 36.171875 -73.859375 33.328125 -76.484375 C 30.492188 -79.117188 29.078125 -82.804688 29.078125 -87.546875 C 29.078125 -94.359375 31.859375 -99.410156 37.421875 -102.703125 C 42.992188 -106.003906 50.367188 -107.65625 59.546875 -107.65625 C 66.460938 -107.65625 73.785156 -106.78125 81.515625 -105.03125 C 89.253906 -103.28125 96.320312 -100.910156 102.71875 -97.921875 L 99 -87.859375 C 93.320312 -90.742188 87.109375 -92.957031 80.359375 -94.5 C 73.609375 -96.050781 66.722656 -96.828125 59.703125 -96.828125 C 53.722656 -96.828125 49.238281 -96.15625 46.25 -94.8125 C 43.257812 -93.476562 41.765625 -91.316406 41.765625 -88.328125 C 41.765625 -86.160156 42.71875 -84.40625 44.625 -83.0625 C 46.53125 -81.726562 49.003906 -80.695312 52.046875 -79.96875 C 55.085938 -79.25 59.34375 -78.375 64.8125 -77.34375 C 74.40625 -75.695312 82.421875 -73.816406 88.859375 -71.703125 C 95.304688 -69.585938 100.898438 -65.925781 105.640625 -60.71875 C 110.390625 -55.507812 112.765625 -48.316406 112.765625 -39.140625 C 112.765625 -30.054688 110.492188 -22.367188 105.953125 -16.078125 C 101.421875 -9.796875 95.054688 -5.03125 86.859375 -1.78125 C 78.660156 1.46875 69.09375 3.09375 58.15625 3.09375 Z M 58.15625 3.09375 "/></g></g></g><g fill="#49a5f2" fill-opacity="1"><g transform="translate(611.823863, 392.983832)"><g><path d="M 63.265625 2.3125 C 45.222656 2.3125 31.710938 -1.679688 22.734375 -9.671875 C 13.765625 -17.660156 9.28125 -29.695312 9.28125 -45.78125 L 9.28125 -123.75 L 21.65625 -123.75 L 21.65625 -45.015625 C 21.65625 -32.328125 25.082031 -23.066406 31.9375 -17.234375 C 38.800781 -11.410156 49.242188 -8.5 63.265625 -8.5 C 77.285156 -8.5 87.695312 -11.410156 94.5 -17.234375 C 101.3125 -23.066406 104.71875 -32.328125 104.71875 -45.015625 L 104.71875 -123.75 L 117.09375 -123.75 L 117.09375 -45.78125 C 117.09375 -29.695312 112.632812 -17.660156 103.71875 -9.671875 C 94.800781 -1.679688 81.316406 2.3125 63.265625 2.3125 Z M 63.265625 -17.015625 C 55.628906 -17.015625 49.46875 -17.992188 44.78125 -19.953125 C 40.09375 -21.910156 36.613281 -25.003906 34.34375 -29.234375 C 32.070312 -33.460938 30.9375 -39.03125 30.9375 -45.9375 L 30.9375 -123.75 L 43.3125 -123.75 L 43.3125 -44.703125 C 43.3125 -38.929688 44.910156 -34.675781 48.109375 -31.9375 C 51.304688 -29.207031 56.359375 -27.84375 63.265625 -27.84375 C 70.171875 -27.84375 75.195312 -29.207031 78.34375 -31.9375 C 81.488281 -34.675781 83.0625 -38.929688 83.0625 -44.703125 L 83.0625 -123.75 L 95.4375 -123.75 L 95.4375 -45.9375 C 95.4375 -39.03125 94.300781 -33.460938 92.03125 -29.234375 C 89.769531 -25.003906 86.289062 -21.910156 81.59375 -19.953125 C 76.90625 -17.992188 70.796875 -17.015625 63.265625 -17.015625 Z M 63.265625 -17.015625 "/></g></g></g><g fill="#49a5f2" fill-opacity="1"><g transform="translate(150.767451, 554.840851)"><g><path d="M 112.921875 -123.75 L 112.921875 -112.921875 L 2.3125 -112.921875 L 2.3125 -123.75 Z M 2.3125 -93.4375 L 2.3125 -104.265625 L 53.0625 -104.265625 L 53.0625 0 L 40.6875 0 L 40.6875 -93.4375 Z M 112.921875 -104.265625 L 112.921875 -93.4375 L 74.71875 -93.4375 L 74.71875 0 L 62.34375 0 L 62.34375 -104.265625 Z M 112.921875 -104.265625 "/></g></g></g><g fill="#49a5f2" fill-opacity="1"><g transform="translate(262.609288, 554.840851)"><g><path d="M 53.671875 -123.75 L 12.53125 0 L 0.765625 0 L 42.53125 -123.75 Z M 78.265625 -123.75 L 120.1875 0 L 108.4375 0 L 67.140625 -123.75 Z M 85.84375 -37.890625 L 35.109375 -37.890625 L 60.484375 -117.71875 Z M 60.484375 -84.765625 L 49.5 -48.71875 L 71.46875 -48.71875 Z M 88.640625 -29.234375 L 98.84375 0 L 86.9375 0 L 80.90625 -18.40625 L 40.0625 -18.40625 L 34.03125 0 L 22.125 0 L 32.328125 -29.234375 Z M 88.640625 -29.234375 "/></g></g></g><g fill="#49a5f2" fill-opacity="1"><g transform="translate(380.174707, 554.840851)"><g><path d="M 58.78125 -16.234375 C 51.664062 -16.234375 43.828125 -17.421875 35.265625 -19.796875 C 26.703125 -22.171875 17.988281 -25.523438 9.125 -29.859375 L 13.453125 -40.375 C 22.015625 -36.039062 30.054688 -32.738281 37.578125 -30.46875 C 45.109375 -28.195312 52.484375 -27.0625 59.703125 -27.0625 C 71.773438 -27.0625 77.8125 -30.46875 77.8125 -37.28125 C 77.8125 -39.75 76.78125 -41.734375 74.71875 -43.234375 C 72.65625 -44.734375 70.078125 -45.867188 66.984375 -46.640625 C 63.890625 -47.410156 59.398438 -48.363281 53.515625 -49.5 C 43.929688 -51.25 36.019531 -53.15625 29.78125 -55.21875 C 23.539062 -57.28125 18.148438 -60.8125 13.609375 -65.8125 C 9.078125 -70.820312 6.8125 -77.8125 6.8125 -86.78125 C 6.8125 -95.132812 8.894531 -102.300781 13.0625 -108.28125 C 17.238281 -114.257812 23.21875 -118.847656 31 -122.046875 C 38.789062 -125.242188 48.050781 -126.84375 58.78125 -126.84375 C 67.238281 -126.84375 76.109375 -125.890625 85.390625 -123.984375 C 94.671875 -122.078125 102.765625 -119.578125 109.671875 -116.484375 L 105.8125 -106.109375 C 98.175781 -109.203125 90.257812 -111.625 82.0625 -113.375 C 73.863281 -115.132812 66.101562 -116.015625 58.78125 -116.015625 C 51.144531 -116.015625 44.363281 -114.984375 38.4375 -112.921875 C 32.507812 -110.859375 27.867188 -107.6875 24.515625 -103.40625 C 21.160156 -99.125 19.484375 -93.738281 19.484375 -87.25 C 19.484375 -80.644531 21.238281 -75.484375 24.75 -71.765625 C 28.257812 -68.054688 32.539062 -65.425781 37.59375 -63.875 C 42.644531 -62.332031 49.347656 -60.890625 57.703125 -59.546875 C 65.023438 -58.316406 70.847656 -57.082031 75.171875 -55.84375 C 79.503906 -54.601562 83.140625 -52.585938 86.078125 -49.796875 C 89.015625 -47.015625 90.484375 -43.203125 90.484375 -38.359375 C 90.484375 -31.035156 87.773438 -25.515625 82.359375 -21.796875 C 76.953125 -18.085938 69.09375 -16.234375 58.78125 -16.234375 Z M 58.15625 3.09375 C 48.46875 3.09375 38.695312 1.804688 28.84375 -0.765625 C 19 -3.347656 9.898438 -7.007812 1.546875 -11.75 L 6.03125 -22.28125 C 15.3125 -17.632812 24.488281 -14.070312 33.5625 -11.59375 C 42.632812 -9.125 51.09375 -7.890625 58.9375 -7.890625 C 72.03125 -7.890625 82.160156 -10.492188 89.328125 -15.703125 C 96.492188 -20.910156 100.078125 -28.671875 100.078125 -38.984375 C 100.078125 -45.890625 98.269531 -51.222656 94.65625 -54.984375 C 91.050781 -58.753906 86.695312 -61.410156 81.59375 -62.953125 C 76.488281 -64.503906 69.707031 -65.945312 61.25 -67.28125 C 53.925781 -68.414062 48.148438 -69.578125 43.921875 -70.765625 C 39.703125 -71.953125 36.171875 -73.859375 33.328125 -76.484375 C 30.492188 -79.117188 29.078125 -82.804688 29.078125 -87.546875 C 29.078125 -94.359375 31.859375 -99.410156 37.421875 -102.703125 C 42.992188 -106.003906 50.367188 -107.65625 59.546875 -107.65625 C 66.460938 -107.65625 73.785156 -106.78125 81.515625 -105.03125 C 89.253906 -103.28125 96.320312 -100.910156 102.71875 -97.921875 L 99 -87.859375 C 93.320312 -90.742188 87.109375 -92.957031 80.359375 -94.5 C 73.609375 -96.050781 66.722656 -96.828125 59.703125 -96.828125 C 53.722656 -96.828125 49.238281 -96.15625 46.25 -94.8125 C 43.257812 -93.476562 41.765625 -91.316406 41.765625 -88.328125 C 41.765625 -86.160156 42.71875 -84.40625 44.625 -83.0625 C 46.53125 -81.726562 49.003906 -80.695312 52.046875 -79.96875 C 55.085938 -79.25 59.34375 -78.375 64.8125 -77.34375 C 74.40625 -75.695312 82.421875 -73.816406 88.859375 -71.703125 C 95.304688 -69.585938 100.898438 -65.925781 105.640625 -60.71875 C 110.390625 -55.507812 112.765625 -48.316406 112.765625 -39.140625 C 112.765625 -30.054688 110.492188 -22.367188 105.953125 -16.078125 C 101.421875 -9.796875 95.054688 -5.03125 86.859375 -1.78125 C 78.660156 1.46875 69.09375 3.09375 58.15625 3.09375 Z M 58.15625 3.09375 "/></g></g></g><g fill="#49a5f2" fill-opacity="1"><g transform="translate(494.182211, 554.840851)"><g><path d="M 53.671875 -123.75 L 12.53125 0 L 0.765625 0 L 42.53125 -123.75 Z M 78.265625 -123.75 L 120.1875 0 L 108.4375 0 L 67.140625 -123.75 Z M 85.84375 -37.890625 L 35.109375 -37.890625 L 60.484375 -117.71875 Z M 60.484375 -84.765625 L 49.5 -48.71875 L 71.46875 -48.71875 Z M 88.640625 -29.234375 L 98.84375 0 L 86.9375 0 L 80.90625 -18.40625 L 40.0625 -18.40625 L 34.03125 0 L 22.125 0 L 32.328125 -29.234375 Z M 88.640625 -29.234375 "/></g></g></g><g fill="#49a5f2" fill-opacity="1"><g transform="translate(611.747652, 554.840851)"><g><path d="M 69.609375 -123.75 C 85.078125 -123.75 96.675781 -120.550781 104.40625 -114.15625 C 112.144531 -107.757812 116.015625 -98.273438 116.015625 -85.703125 C 116.015625 -76.515625 114.335938 -68.851562 110.984375 -62.71875 C 107.628906 -56.582031 102.5 -51.914062 95.59375 -48.71875 L 116.015625 0 L 103.015625 0 L 81.359375 -55.21875 C 88.890625 -56.664062 94.429688 -59.8125 97.984375 -64.65625 C 101.546875 -69.5 103.328125 -76.203125 103.328125 -84.765625 C 103.328125 -94.359375 100.363281 -101.445312 94.4375 -106.03125 C 88.507812 -110.625 79.148438 -112.921875 66.359375 -112.921875 L 21.65625 -112.921875 L 21.65625 0 L 9.28125 0 L 9.28125 -123.75 Z M 68.6875 -104.265625 C 76.9375 -104.265625 83.171875 -102.5625 87.390625 -99.15625 C 91.617188 -95.75 93.734375 -90.695312 93.734375 -84 C 93.734375 -76.78125 91.722656 -71.363281 87.703125 -67.75 C 83.679688 -64.144531 77.546875 -62.34375 69.296875 -62.34375 L 30.9375 -62.34375 L 30.9375 -104.265625 Z M 68.984375 -73.171875 C 73.003906 -73.171875 76.019531 -74.070312 78.03125 -75.875 C 80.050781 -77.675781 81.0625 -80.332031 81.0625 -83.84375 C 81.0625 -90.238281 77.035156 -93.4375 68.984375 -93.4375 L 42.53125 -93.4375 L 42.53125 -73.171875 Z M 65.890625 -53.828125 C 67.648438 -53.828125 69.972656 -53.929688 72.859375 -54.140625 L 93.125 0 L 80.28125 0 L 64.96875 -43 L 43.3125 -43 L 43.3125 0 L 30.9375 0 L 30.9375 -53.828125 Z M 65.890625 -53.828125 "/></g></g></g><g fill="#49a5f2" fill-opacity="1"><g transform="translate(730.086535, 554.840851)"><g><path d="M 69.609375 -123.75 C 85.078125 -123.75 96.675781 -120.550781 104.40625 -114.15625 C 112.144531 -107.757812 116.015625 -98.273438 116.015625 -85.703125 C 116.015625 -76.515625 114.335938 -68.851562 110.984375 -62.71875 C 107.628906 -56.582031 102.5 -51.914062 95.59375 -48.71875 L 116.015625 0 L 103.015625 0 L 81.359375 -55.21875 C 88.890625 -56.664062 94.429688 -59.8125 97.984375 -64.65625 C 101.546875 -69.5 103.328125 -76.203125 103.328125 -84.765625 C 103.328125 -94.359375 100.363281 -101.445312 94.4375 -106.03125 C 88.507812 -110.625 79.148438 -112.921875 66.359375 -112.921875 L 21.65625 -112.921875 L 21.65625 0 L 9.28125 0 L 9.28125 -123.75 Z M 68.6875 -104.265625 C 76.9375 -104.265625 83.171875 -102.5625 87.390625 -99.15625 C 91.617188 -95.75 93.734375 -90.695312 93.734375 -84 C 93.734375 -76.78125 91.722656 -71.363281 87.703125 -67.75 C 83.679688 -64.144531 77.546875 -62.34375 69.296875 -62.34375 L 30.9375 -62.34375 L 30.9375 -104.265625 Z M 68.984375 -73.171875 C 73.003906 -73.171875 76.019531 -74.070312 78.03125 -75.875 C 80.050781 -77.675781 81.0625 -80.332031 81.0625 -83.84375 C 81.0625 -90.238281 77.035156 -93.4375 68.984375 -93.4375 L 42.53125 -93.4375 L 42.53125 -73.171875 Z M 65.890625 -53.828125 C 67.648438 -53.828125 69.972656 -53.929688 72.859375 -54.140625 L 93.125 0 L 80.28125 0 L 64.96875 -43 L 43.3125 -43 L 43.3125 0 L 30.9375 0 L 30.9375 -53.828125 Z M 65.890625 -53.828125 "/></g></g></g><g fill="#49a5f2" fill-opacity="1"><g transform="translate(848.425418, 554.840851)"><g><path d="M 63.265625 2.3125 C 45.222656 2.3125 31.710938 -1.679688 22.734375 -9.671875 C 13.765625 -17.660156 9.28125 -29.695312 9.28125 -45.78125 L 9.28125 -123.75 L 21.65625 -123.75 L 21.65625 -45.015625 C 21.65625 -32.328125 25.082031 -23.066406 31.9375 -17.234375 C 38.800781 -11.410156 49.242188 -8.5 63.265625 -8.5 C 77.285156 -8.5 87.695312 -11.410156 94.5 -17.234375 C 101.3125 -23.066406 104.71875 -32.328125 104.71875 -45.015625 L 104.71875 -123.75 L 117.09375 -123.75 L 117.09375 -45.78125 C 117.09375 -29.695312 112.632812 -17.660156 103.71875 -9.671875 C 94.800781 -1.679688 81.316406 2.3125 63.265625 2.3125 Z M 63.265625 -17.015625 C 55.628906 -17.015625 49.46875 -17.992188 44.78125 -19.953125 C 40.09375 -21.910156 36.613281 -25.003906 34.34375 -29.234375 C 32.070312 -33.460938 30.9375 -39.03125 30.9375 -45.9375 L 30.9375 -123.75 L 43.3125 -123.75 L 43.3125 -44.703125 C 43.3125 -38.929688 44.910156 -34.675781 48.109375 -31.9375 C 51.304688 -29.207031 56.359375 -27.84375 63.265625 -27.84375 C 70.171875 -27.84375 75.195312 -29.207031 78.34375 -31.9375 C 81.488281 -34.675781 83.0625 -38.929688 83.0625 -44.703125 L 83.0625 -123.75 L 95.4375 -123.75 L 95.4375 -45.9375 C 95.4375 -39.03125 94.300781 -33.460938 92.03125 -29.234375 C 89.769531 -25.003906 86.289062 -21.910156 81.59375 -19.953125 C 76.90625 -17.992188 70.796875 -17.015625 63.265625 -17.015625 Z M 63.265625 -17.015625 "/></g></g></g><g fill="#49a5f2" fill-opacity="1"><g transform="translate(971.405038, 554.840851)"><g><path d="M 108.28125 -123.75 L 108.28125 -112.921875 L 21.65625 -112.921875 L 21.65625 0 L 9.28125 0 L 9.28125 -123.75 Z M 108.28125 -104.265625 L 108.28125 -93.4375 L 43.3125 -93.4375 L 43.3125 -74.40625 L 106.734375 -74.40625 L 106.734375 -63.578125 L 30.9375 -63.578125 L 30.9375 -104.265625 Z M 106.734375 -54.90625 L 106.734375 -44.078125 L 43.3125 -44.078125 L 43.3125 0 L 30.9375 0 L 30.9375 -54.90625 Z M 106.734375 -54.90625 "/></g></g></g><g fill="#49a5f2" fill-opacity="1"><g transform="translate(242.959448, 716.69787)"><g><path d="M 69.609375 -123.75 C 85.078125 -123.75 96.675781 -120.550781 104.40625 -114.15625 C 112.144531 -107.757812 116.015625 -98.273438 116.015625 -85.703125 C 116.015625 -76.515625 114.335938 -68.851562 110.984375 -62.71875 C 107.628906 -56.582031 102.5 -51.914062 95.59375 -48.71875 L 116.015625 0 L 103.015625 0 L 81.359375 -55.21875 C 88.890625 -56.664062 94.429688 -59.8125 97.984375 -64.65625 C 101.546875 -69.5 103.328125 -76.203125 103.328125 -84.765625 C 103.328125 -94.359375 100.363281 -101.445312 94.4375 -106.03125 C 88.507812 -110.625 79.148438 -112.921875 66.359375 -112.921875 L 21.65625 -112.921875 L 21.65625 0 L 9.28125 0 L 9.28125 -123.75 Z M 68.6875 -104.265625 C 76.9375 -104.265625 83.171875 -102.5625 87.390625 -99.15625 C 91.617188 -95.75 93.734375 -90.695312 93.734375 -84 C 93.734375 -76.78125 91.722656 -71.363281 87.703125 -67.75 C 83.679688 -64.144531 77.546875 -62.34375 69.296875 -62.34375 L 30.9375 -62.34375 L 30.9375 -104.265625 Z M 68.984375 -73.171875 C 73.003906 -73.171875 76.019531 -74.070312 78.03125 -75.875 C 80.050781 -77.675781 81.0625 -80.332031 81.0625 -83.84375 C 81.0625 -90.238281 77.035156 -93.4375 68.984375 -93.4375 L 42.53125 -93.4375 L 42.53125 -73.171875 Z M 65.890625 -53.828125 C 67.648438 -53.828125 69.972656 -53.929688 72.859375 -54.140625 L 93.125 0 L 80.28125 0 L 64.96875 -43 L 43.3125 -43 L 43.3125 0 L 30.9375 0 L 30.9375 -53.828125 Z M 65.890625 -53.828125 "/></g></g></g><g fill="#49a5f2" fill-opacity="1"><g transform="translate(361.298331, 716.69787)"><g><path d="M 106.734375 -123.75 L 106.734375 -112.921875 L 21.65625 -112.921875 L 21.65625 -10.828125 L 108.28125 -10.828125 L 108.28125 0 L 9.28125 0 L 9.28125 -123.75 Z M 106.734375 -104.265625 L 106.734375 -93.4375 L 43.3125 -93.4375 L 43.3125 -77.5 L 105.1875 -77.5 L 105.1875 -66.671875 L 30.9375 -66.671875 L 30.9375 -104.265625 Z M 105.1875 -58 L 105.1875 -47.171875 L 43.3125 -47.171875 L 43.3125 -30.3125 L 108.28125 -30.3125 L 108.28125 -19.484375 L 30.9375 -19.484375 L 30.9375 -58 Z M 105.1875 -58 "/></g></g></g><g fill="#49a5f2" fill-opacity="1"><g transform="translate(471.747942, 716.69787)"><g><path d="M 21.65625 -123.75 L 21.65625 0 L 9.28125 0 L 9.28125 -123.75 Z M 43.3125 -123.75 L 43.3125 -77.65625 L 81.984375 -77.65625 L 81.984375 -123.75 L 94.359375 -123.75 L 94.359375 -66.828125 L 30.9375 -66.828125 L 30.9375 -123.75 Z M 116.015625 -123.75 L 116.015625 0 L 103.640625 0 L 103.640625 -123.75 Z M 94.359375 -58.15625 L 94.359375 0 L 81.984375 0 L 81.984375 -47.328125 L 43.3125 -47.328125 L 43.3125 0 L 30.9375 0 L 30.9375 -58.15625 Z M 94.359375 -58.15625 "/></g></g></g><g fill="#49a5f2" fill-opacity="1"><g transform="translate(593.644717, 716.69787)"><g><path d="M 74.875 -123.75 C 87.757812 -123.75 97.347656 -120.960938 103.640625 -115.390625 C 109.929688 -109.828125 113.078125 -101.992188 113.078125 -91.890625 C 113.078125 -86.003906 111.835938 -80.738281 109.359375 -76.09375 C 106.890625 -71.457031 103.28125 -67.90625 98.53125 -65.4375 C 104.613281 -63.269531 109.253906 -59.660156 112.453125 -54.609375 C 115.648438 -49.554688 117.25 -43.570312 117.25 -36.65625 C 117.25 -29.03125 115.625 -22.457031 112.375 -16.9375 C 109.125 -11.414062 104.484375 -7.210938 98.453125 -4.328125 C 92.421875 -1.441406 85.28125 0 77.03125 0 L 9.28125 0 L 9.28125 -123.75 Z M 76.421875 -10.828125 C 85.390625 -10.828125 92.375 -13.144531 97.375 -17.78125 C 102.375 -22.425781 104.875 -29.03125 104.875 -37.59375 C 104.875 -45.21875 102.707031 -51.066406 98.375 -55.140625 C 94.050781 -59.210938 87.144531 -61.972656 77.65625 -63.421875 C 85.175781 -64.554688 90.894531 -67.285156 94.8125 -71.609375 C 98.738281 -75.941406 100.703125 -81.820312 100.703125 -89.25 C 100.703125 -97.09375 98.378906 -103 93.734375 -106.96875 C 89.097656 -110.9375 82.296875 -112.921875 73.328125 -112.921875 L 21.65625 -112.921875 L 21.65625 -10.828125 Z M 71.78125 -104.265625 C 77.65625 -104.265625 82.265625 -102.84375 85.609375 -100 C 88.960938 -97.164062 90.640625 -92.960938 90.640625 -87.390625 C 90.640625 -81.109375 88.550781 -76.160156 84.375 -72.546875 C 80.195312 -68.941406 74.035156 -67.140625 65.890625 -67.140625 L 30.9375 -67.140625 L 30.9375 -104.265625 Z M 68.375 -77.96875 C 74.769531 -77.96875 77.96875 -80.546875 77.96875 -85.703125 C 77.96875 -90.859375 74.769531 -93.4375 68.375 -93.4375 L 43.3125 -93.4375 L 43.3125 -77.96875 Z M 71.625 -58.46875 C 78.945312 -58.46875 84.644531 -56.738281 88.71875 -53.28125 C 92.789062 -49.832031 94.828125 -44.753906 94.828125 -38.046875 C 94.828125 -31.960938 93.125 -27.347656 89.71875 -24.203125 C 86.3125 -21.054688 81.257812 -19.484375 74.5625 -19.484375 L 30.9375 -19.484375 L 30.9375 -58.46875 Z M 69.609375 -30.3125 C 73.941406 -30.3125 77.113281 -31.007812 79.125 -32.40625 C 81.132812 -33.800781 82.140625 -35.992188 82.140625 -38.984375 C 82.140625 -41.972656 81.132812 -44.160156 79.125 -45.546875 C 77.113281 -46.941406 73.941406 -47.640625 69.609375 -47.640625 L 43.3125 -47.640625 L 43.3125 -30.3125 Z M 69.609375 -30.3125 "/></g></g></g><g fill="#49a5f2" fill-opacity="1"><g transform="translate(711.674241, 716.69787)"><g><path d="M 106.734375 -123.75 L 106.734375 -112.921875 L 21.65625 -112.921875 L 21.65625 -10.828125 L 108.28125 -10.828125 L 108.28125 0 L 9.28125 0 L 9.28125 -123.75 Z M 106.734375 -104.265625 L 106.734375 -93.4375 L 43.3125 -93.4375 L 43.3125 -77.5 L 105.1875 -77.5 L 105.1875 -66.671875 L 30.9375 -66.671875 L 30.9375 -104.265625 Z M 105.1875 -58 L 105.1875 -47.171875 L 43.3125 -47.171875 L 43.3125 -30.3125 L 108.28125 -30.3125 L 108.28125 -19.484375 L 30.9375 -19.484375 L 30.9375 -58 Z M 105.1875 -58 "/></g></g></g><g fill="#49a5f2" fill-opacity="1"><g transform="translate(822.123853, 716.69787)"><g><path d="M 69.609375 -123.75 C 85.078125 -123.75 96.675781 -120.550781 104.40625 -114.15625 C 112.144531 -107.757812 116.015625 -98.273438 116.015625 -85.703125 C 116.015625 -76.515625 114.335938 -68.851562 110.984375 -62.71875 C 107.628906 -56.582031 102.5 -51.914062 95.59375 -48.71875 L 116.015625 0 L 103.015625 0 L 81.359375 -55.21875 C 88.890625 -56.664062 94.429688 -59.8125 97.984375 -64.65625 C 101.546875 -69.5 103.328125 -76.203125 103.328125 -84.765625 C 103.328125 -94.359375 100.363281 -101.445312 94.4375 -106.03125 C 88.507812 -110.625 79.148438 -112.921875 66.359375 -112.921875 L 21.65625 -112.921875 L 21.65625 0 L 9.28125 0 L 9.28125 -123.75 Z M 68.6875 -104.265625 C 76.9375 -104.265625 83.171875 -102.5625 87.390625 -99.15625 C 91.617188 -95.75 93.734375 -90.695312 93.734375 -84 C 93.734375 -76.78125 91.722656 -71.363281 87.703125 -67.75 C 83.679688 -64.144531 77.546875 -62.34375 69.296875 -62.34375 L 30.9375 -62.34375 L 30.9375 -104.265625 Z M 68.984375 -73.171875 C 73.003906 -73.171875 76.019531 -74.070312 78.03125 -75.875 C 80.050781 -77.675781 81.0625 -80.332031 81.0625 -83.84375 C 81.0625 -90.238281 77.035156 -93.4375 68.984375 -93.4375 L 42.53125 -93.4375 L 42.53125 -73.171875 Z M 65.890625 -53.828125 C 67.648438 -53.828125 69.972656 -53.929688 72.859375 -54.140625 L 93.125 0 L 80.28125 0 L 64.96875 -43 L 43.3125 -43 L 43.3125 0 L 30.9375 0 L 30.9375 -53.828125 Z M 65.890625 -53.828125 "/></g></g></g><g fill="#49a5f2" fill-opacity="1"><g transform="translate(940.462735, 716.69787)"><g><path d="M 21.65625 -123.75 L 21.65625 0 L 9.28125 0 L 9.28125 -123.75 Z M 43.3125 -123.75 L 43.3125 0 L 30.9375 0 L 30.9375 -123.75 Z M 21.5 -158.546875 L 21.5 -133.328125 L 9.28125 -133.328125 L 9.28125 -158.546875 Z M 43.3125 -158.546875 L 43.3125 -133.328125 L 31.09375 -133.328125 L 31.09375 -158.546875 Z M 43.3125 -158.546875 "/></g></g></g><path stroke-linecap="round" transform="matrix(0.749338, 0, 0, 0.749338, 455.351807, 244.745909)" fill="none" stroke-linejoin="miter" d="M 2.501882 2.502455 L 32.299015 2.502455 " stroke="#fdfdfd" stroke-width="5" stroke-opacity="1" stroke-miterlimit="4"/><path stroke-linecap="round" transform="matrix(0.749338, 0, 0, 0.749338, 708.072296, 244.745909)" fill="none" stroke-linejoin="miter" d="M 2.499561 2.502455 L 32.296693 2.502455 " stroke="#fdfdfd" stroke-width="5" stroke-opacity="1" stroke-miterlimit="4"/><g clip-path="url(#da501aefe8)"><path fill="#fdfdfd" d="M 618.007812 677.6875 C 579.816406 678.007812 579.546875 678.277344 579.226562 716.464844 C 578.886719 678.277344 578.617188 678.007812 540.425781 677.6875 C 578.617188 677.34375 578.886719 677.074219 579.226562 638.886719 C 579.546875 677.074219 579.816406 677.34375 618.007812 677.6875 Z M 618.007812 677.6875 " fill-opacity="1" fill-rule="nonzero"/></g><g clip-path="url(#5b5db9044e)"><path fill="#fdfdfd" d="M 1022.046875 324.574219 C 983.855469 324.894531 983.585938 325.164062 983.269531 363.351562 C 982.925781 325.164062 982.65625 324.894531 944.464844 324.574219 C 982.65625 324.230469 982.925781 323.960938 983.269531 285.773438 C 983.585938 323.960938 983.855469 324.230469 1022.046875 324.574219 Z M 1022.046875 324.574219 " fill-opacity="1" fill-rule="nonzero"/></g><g clip-path="url(#095b8a763d)"><path fill="#fdfdfd" d="M 314.820312 1555.160156 C 276.628906 1555.476562 276.359375 1555.746094 276.042969 1593.9375 C 275.699219 1555.746094 275.429688 1555.476562 237.238281 1555.160156 C 275.429688 1554.816406 275.699219 1554.546875 276.042969 1516.355469 C 276.359375 1554.546875 276.628906 1554.816406 314.820312 1555.160156 Z M 314.820312 1555.160156 " fill-opacity="1" fill-rule="nonzero"/></g><g clip-path="url(#14882782d2)"><path fill="#fdfdfd" d="M 61.109375 1065.140625 C 40.0625 1065.316406 39.914062 1065.464844 39.738281 1086.511719 C 39.546875 1065.464844 39.398438 1065.316406 18.351562 1065.140625 C 39.398438 1064.949219 39.546875 1064.800781 39.738281 1043.753906 C 39.914062 1064.800781 40.0625 1064.949219 61.109375 1065.140625 Z M 61.109375 1065.140625 " fill-opacity="1" fill-rule="nonzero"/></g><g clip-path="url(#9fa43f11a2)"><path fill="#fdfdfd" d="M 1140.574219 1257.058594 C 1119.523438 1257.234375 1119.375 1257.382812 1119.199219 1278.433594 C 1119.011719 1257.382812 1118.863281 1257.234375 1097.8125 1257.058594 C 1118.863281 1256.871094 1119.011719 1256.722656 1119.199219 1235.671875 C 1119.375 1256.722656 1119.523438 1256.871094 1140.574219 1257.058594 Z M 1140.574219 1257.058594 " fill-opacity="1" fill-rule="nonzero"/></g><g clip-path="url(#6ba4696e0f)"><path fill="#fdfdfd" d="M 169.804688 177.023438 C 148.753906 177.199219 148.605469 177.347656 148.429688 198.394531 C 148.242188 177.347656 148.09375 177.199219 127.042969 177.023438 C 148.09375 176.835938 148.242188 176.683594 148.429688 155.636719 C 148.605469 176.683594 148.753906 176.835938 169.804688 177.023438 Z M 169.804688 177.023438 " fill-opacity="1" fill-rule="nonzero"/></g><g clip-path="url(#66e6356a4a)"><path fill="#fdfdfd" d="M 965.753906 1484.019531 C 944.707031 1484.195312 944.558594 1484.34375 944.382812 1505.390625 C 944.191406 1484.34375 944.042969 1484.195312 922.996094 1484.019531 C 944.042969 1483.828125 944.191406 1483.679688 944.382812 1462.632812 C 944.558594 1483.679688 944.707031 1483.828125 965.753906 1484.019531 Z M 965.753906 1484.019531 " fill-opacity="1" fill-rule="nonzero"/></g></g></g></g></svg>